<?xml version="1.0" encoding="UTF-8"?>
<svg width="28px" height="28px" viewBox="0 0 28 28" version="1.1" xmlns="http://www.w3.org/2000/svg" xmlns:xlink="http://www.w3.org/1999/xlink">
    <!-- Generator: Sketch 52.5 (67469) - http://www.bohemiancoding.com/sketch -->
    <title>product/add-mark-28</title>
    <desc>Created with Sketch.</desc>
    <g id="add-mark-28" stroke="none" stroke-width="1" fill="none" fill-rule="evenodd">
        <path d="M16,12 L16,5.99339768 C16,5.44494629 15.5480902,5 14.9906311,5 L13.0093689,5 C12.4433532,5 12,5.44475929 12,5.99339768 L12,12 L5.99339768,12 C5.44494629,12 5,12.4519098 5,13.0093689 L5,14.9906311 C5,15.5566468 5.44475929,16 5.99339768,16 L12,16 L12,22.0066023 C12,22.5550537 12.4519098,23 13.0093689,23 L14.9906311,23 C15.5566468,23 16,22.5552407 16,22.0066023 L16,16 L22.0066023,16 C22.5550537,16 23,15.5480902 23,14.9906311 L23,13.0093689 C23,12.4433532 22.5552407,12 22.0066023,12 L16,12 L16,12 Z" fill="#FFFFFF"></path>
    </g>
</svg>