<?xml version="1.0" encoding="UTF-8"?>
<svg width="28px" height="28px" viewBox="0 0 28 28" version="1.1" xmlns="http://www.w3.org/2000/svg" xmlns:xlink="http://www.w3.org/1999/xlink">
    <!-- Generator: Sketch 52.5 (67469) - http://www.bohemiancoding.com/sketch -->
    <title>product/layout-list-28</title>
    <desc>Created with Sketch.</desc>
    <g id="layout-list-28" stroke="none" stroke-width="1" fill="none" fill-rule="evenodd">
        <path d="M3.5,4 C2.67157288,4 2,4.67157288 2,5.5 L2,6.5 C2,7.32842712 2.67157288,8 3.5,8 L24.5,8 C25.3284271,8 26,7.32842712 26,6.5 L26,5.5 C26,4.67157288 25.3284271,4 24.5,4 L3.5,4 Z M3.5,12 C2.67157288,12 2,12.6715729 2,13.5 L2,14.5 C2,15.3284271 2.67157288,16 3.5,16 L24.5,16 C25.3284271,16 26,15.3284271 26,14.5 L26,13.5 C26,12.6715729 25.3284271,12 24.5,12 L3.5,12 Z M3.5,20 C2.67157288,20 2,20.6715729 2,21.5 L2,22.5 C2,23.3284271 2.67157288,24 3.5,24 L24.5,24 C25.3284271,24 26,23.3284271 26,22.5 L26,21.5 C26,20.6715729 25.3284271,20 24.5,20 L3.5,20 Z" id="Combined-Shape" fill="#FFFFFF"></path>
    </g>
</svg>