<?xml version="1.0" encoding="UTF-8"?>
<svg width="28px" height="28px" viewBox="0 0 28 28" version="1.1" xmlns="http://www.w3.org/2000/svg" xmlns:xlink="http://www.w3.org/1999/xlink">
    <!-- Generator: Sketch 52.5 (67469) - http://www.bohemiancoding.com/sketch -->
    <title>product/usage-28</title>
    <desc>Created with Sketch.</desc>
    <g id="usage-28" stroke="none" stroke-width="1" fill="none" fill-rule="evenodd">
        <path d="M20,23 L20,18 C20,17.4477153 20.4477153,17 21,17 L22,17 C22.5522847,17 23,17.4477153 23,18 L23,23 L23.008845,23 C24.1103261,23 25,22.1067681 25,21.0049107 L25,6.99508929 C25,5.8926228 24.1085295,5 23.008845,5 L4.991155,5 C3.88967395,5 3,5.8932319 3,6.99508929 L3,21.0049107 C3,22.1073772 3.89147046,23 4.991155,23 L5,23 L5,15 C5,14.4477153 5.44771525,14 6,14 L7,14 C7.55228475,14 8,14.4477153 8,15 L8,23 L10,23 L10,11 C10,10.4477153 10.4477153,10 11,10 L12,10 C12.5522847,10 13,10.4477153 13,11 L13,23 L15,23 L15,12 C15,11.4477153 15.4477153,11 16,11 L17,11 C17.5522847,11 18,11.4477153 18,12 L18,23 L20,23 Z M2,6.99420208 C2,5.34054993 3.34177063,4 4.99109042,4 L23.0089096,4 C24.6608432,4 26,5.34331197 26,6.99420208 L26,21.0057979 C26,22.6594501 24.6582294,24 23.0089096,24 L4.99109042,24 C3.33915679,24 2,22.656688 2,21.0057979 L2,6.99420208 Z" id="usage" fill="#FFFFFF"></path>
    </g>
</svg>