<svg id="Layer_1" xmlns="http://www.w3.org/2000/svg" width="850" height="450" viewBox="0 0 850 450"><style>.st0,.st1{fill:#fff;stroke:#714899;stroke-width:2;stroke-linecap:round;stroke-linejoin:round;stroke-miterlimit:10}.st1{fill:#ede9f5}.st2{fill:#704898}.st3,.st4,.st5,.st6,.st7{fill:none;stroke:#704898;stroke-width:2;stroke-linecap:round;stroke-linejoin:round;stroke-miterlimit:10}.st4,.st5,.st6,.st7{fill:#a994c2;stroke:#714899}.st5,.st6,.st7{fill:#c6bad8}.st6,.st7{fill:#dccee5}.st7{fill:#f6f3f9}.st8{opacity:.8;fill:#fff}.st10,.st11,.st12,.st13,.st14,.st15,.st16,.st17,.st18,.st9{fill:none;stroke:#714899;stroke-width:2;stroke-linecap:round;stroke-linejoin:round;stroke-miterlimit:10}.st10,.st11,.st12,.st13,.st14,.st15,.st16,.st17,.st18{fill:#fff;stroke-width:1.3}.st11,.st12,.st13,.st14,.st15,.st16,.st17,.st18{fill:#ede9f5}.st12,.st13,.st14,.st15,.st16,.st17,.st18{fill:none;stroke:#704898}.st13,.st14,.st15,.st16,.st17,.st18{fill:#a994c2;stroke:#714899}.st14,.st15,.st16,.st17,.st18{fill:#c6bad8}.st15,.st16,.st17,.st18{fill:#dccee5}.st16,.st17,.st18{fill:#f6f3f9}.st17,.st18{fill:none}.st18{stroke:#dccee5;stroke-width:2}.st19{font-family:&apos;BentonSans-Medium&apos;}.st20{font-size:14px}</style><path class="st18" d="M81.2 225h320.9M583 102.2h141.9M583 347.9h141.9M481.4 225L583 347.9M583 347.9L481.4 173.7M583 102.2L481.4 276.3M583 102.2L481.4 225M583 102.2L402.1 225M402.1 225L583 347.9"/><path class="st2" d="M128.4 204.3c-2.5 1.1-5.1 1.8-7.9 2.2 2.8-1.7 5-4.4 6-7.6-2.6 1.6-5.6 2.7-8.7 3.3-2.5-2.7-6.1-4.3-10-4.3-7.6 0-13.7 6.1-13.7 13.7 0 1.1.1 2.1.4 3.1-11.4-.6-21.5-6-28.2-14.3-1.2 2-1.9 4.4-1.9 6.9 0 4.7 2.4 8.9 6.1 11.4-2.2-.1-4.4-.7-6.2-1.7v.2c0 6.6 4.7 12.2 11 13.4-1.1.3-2.4.5-3.6.5-.9 0-1.7-.1-2.6-.2 1.7 5.4 6.8 9.4 12.8 9.5-4.7 3.7-10.6 5.9-17 5.9-1.1 0-2.2-.1-3.3-.2 6.1 3.9 13.2 6.1 21 6.1 25.2 0 38.9-20.9 38.9-38.9v-1.8c2.8-2 5.1-4.4 6.9-7.2z"/><circle class="st1" cx="195.1" cy="225" r="12.2"/><circle class="st1" cx="402.1" cy="225" r="12.2"/><circle class="st1" cx="583" cy="102.2" r="12.2"/><circle class="st1" cx="583" cy="347.9" r="12.2"/><path transform="rotate(45.001 298.583 225.028)" class="st0" d="M285.6 212.1h25.9V238h-25.9z"/><path transform="rotate(45.001 481.392 173.717)" class="st0" d="M468.5 160.8h25.9v25.9h-25.9z"/><path transform="rotate(45.001 481.392 225.026)" class="st0" d="M468.5 212.1h25.9V238h-25.9z"/><path transform="rotate(45.001 481.393 276.334)" class="st0" d="M468.5 263.4h25.9v25.9h-25.9z"/><path transform="rotate(45.001 658.945 102.149)" class="st0" d="M646 89.2h25.9v25.9H646z"/><path transform="rotate(45.001 658.947 347.898)" class="st0" d="M646 335h25.9v25.9H646z"/><path class="st3" d="M739.9 102.2h28M739.9 347.9h28M753.9 102.2v245.7"/><text transform="translate(168.493 266.97)" class="st2 st19 st20">INGEST</text><text transform="translate(357.87 287.148)" class="st2 st19 st20">FAN-OUT</text><text transform="translate(539.014 73.148)" class="st2 st19 st20">AGGREGATE</text><text transform="translate(521.753 386.148)" class="st2 st19 st20">RELATED WORDS</text><text transform="translate(774.9 212.878)"><tspan x="0" y="0" class="st2 st19 st20">W</tspan><tspan x="2.3" y="16.8" class="st2 st19 st20">E</tspan><tspan x="1.7" y="33.6" class="st2 st19 st20">B</tspan></text></svg>