<svg xmlns="http://www.w3.org/2000/svg" width="110.1" height="77.1" viewBox="0 0 110.1 77.1"><style>.st0,.st1{opacity:.5;fill:url(#SVGID_1_)}.st1{fill:url(#SVGID_2_)}.st2{fill:#fff}.st3{fill:#d8dde6}.st4{display:none}.st5{fill:url(#SVGID_3_)}.st5,.st6,.st7{display:inline}.st7{fill:url(#SVGID_4_)}.st8{fill:#74787c}.st9{display:inline;fill:#73629e}.st10{fill:#5993ce}.st10,.st11,.st12{display:inline}.st11{fill:#86b980}.st12{fill:#f0a354}.st13{fill:#73629e}.st14{fill:#5993ce}.st15{fill:#86b980}.st16{fill:#f0a354}.st17{fill:#212221}.st18{display:inline;opacity:.8}.st18,.st19{fill:#5993ce}.st19,.st20{display:inline}.st19,.st20{opacity:.6}.st20{fill:#73629e}.st21,.st22,.st23{display:inline;opacity:.4;fill:#5993ce}.st22,.st23{opacity:.6;fill:#f0a354}.st23{opacity:.8}.st24{display:inline;fill:#73629e}.st24,.st25{opacity:.4}.st25,.st26,.st27{display:inline}.st25,.st26{fill:#86b980}.st26,.st27{opacity:.8}.st27{fill:#73629e}.st28{opacity:.6;fill:#86b980}.st28,.st29,.st30{display:inline}.st29{fill:#f0a354;opacity:.4}.st30{opacity:.6}.st31{fill:none;stroke:#886baa;stroke-linecap:round;stroke-linejoin:round;stroke-miterlimit:10}.st32{fill:#886baa}.st33{display:inline;fill:#482d8c}.st34{fill:#3ca1da}.st34,.st35,.st36{display:inline}.st35{fill:#79c36d}.st36{fill:#f9a151}.st37{fill:#482d8c}.st38{fill:#3ca1da}.st39{fill:#79c36d}.st40{fill:#f9a151}.st41,.st42,.st43{display:inline;fill:#3da1da}.st44{display:inline}.st42{opacity:.8}.st43,.st44{opacity:.6}.st44{fill:#482d8c}.st45{display:inline;fill:#3da1da}.st45,.st46,.st47{opacity:.4}.st46,.st47,.st48,.st49{display:inline}.st46{fill:#482d8c}.st47,.st48{fill:#78c36e}.st48,.st49{opacity:.8}.st49{fill:#482d8c}.st50,.st51{display:inline;fill:#78c36e}.st51{opacity:.6}.st52{fill:#dae0e4}.st53{fill:#29347c}.st54{fill:#139cd8}.st55{fill-rule:evenodd;clip-rule:evenodd;fill:#fff}.st56{fill:#18afe5}.st57{fill:#955aa4}.st58{fill:#f29e1f}.st59{fill:#1fbcb8}.st60,.st61,.st62{opacity:.8;fill:#18aee5}.st61,.st62{opacity:.6}.st62{fill:#955aa4}.st63{opacity:.4;fill:#18aee5}.st64,.st65{opacity:.6;fill:#23bcb8}.st65{opacity:.8}.st66{opacity:.4;fill:#955aa4}.st67{fill:#23bcb8}.st68{fill:#18aee5}.st69,.st70,.st71{opacity:.4;fill:#f19e22}.st70,.st71{opacity:.8}.st71{fill:#955aa4}.st72,.st73{fill:#f19e22}.st73{opacity:.6}.st74{opacity:.4;fill:#23bcb8}.st75{fill:#054d61}.st76{opacity:.6}.st77,.st78,.st79{fill:none;stroke:#18aee5;stroke-linecap:round;stroke-linejoin:round;stroke-miterlimit:10}.st78,.st79{fill:#fff;stroke:#714899;stroke-width:2}.st79{fill:#ede9f5}.st80{fill:#704898}.st81{fill:none;stroke:#704898}.st81,.st82,.st83,.st84,.st85{stroke-width:2;stroke-linecap:round;stroke-linejoin:round;stroke-miterlimit:10}.st82{fill:#a994c2}.st82,.st83,.st84,.st85{stroke:#714899}.st83{fill:#c6bad8}.st84{fill:#dccee5}.st85{fill:#f6f3f9}.st86{opacity:.8;fill:#fff}.st87{fill:none;stroke-width:2;stroke-linecap:round;stroke-linejoin:round;stroke-miterlimit:10}.st87,.st88,.st89{stroke:#714899}.st88,.st89,.st90,.st91,.st92,.st93,.st94,.st95{stroke-linecap:round;stroke-linejoin:round;stroke-miterlimit:10}.st88{fill:#fff}.st88,.st89,.st90,.st91,.st92,.st93,.st94,.st95{stroke-width:1.3}.st89{fill:#ede9f5}.st90{fill:none;stroke:#704898}.st91{fill:#a994c2}.st91,.st92,.st93,.st94,.st95{stroke:#714899}.st92{fill:#c6bad8}.st93{fill:#dccee5}.st94{fill:#f6f3f9}.st95{fill:none}</style><g id="header_-_Salesforce"><path class="st54" d="M45.8 8.4c3.6-3.7 8.5-6 14-6 7.3 0 13.6 4.1 17 10.1 2.9-1.3 6.2-2 9.6-2 13.1 0 23.7 10.7 23.7 23.9S99.5 58.3 86.4 58.3c-1.6 0-3.2-.2-4.7-.5-3 5.3-8.6 8.9-15.1 8.9-2.7 0-5.3-.6-7.6-1.7-3 7.1-10 12.1-18.2 12.1-8.5 0-15.8-5.4-18.6-13-1.2.3-2.5.4-3.8.4C8.2 64.5 0 56.2 0 45.9 0 39 3.7 33 9.2 29.8c-1.1-2.6-1.8-5.5-1.8-8.5C7.4 9.6 17 0 28.8 0c6.9 0 13.1 3.3 17 8.4"/><path class="st2" d="M15.9 40c-.1.2 0 .2 0 .2.2.2.4.3.6.4 1.1.6 2.2.8 3.3.8 2.3 0 3.7-1.2 3.7-3.1 0-1.8-1.6-2.4-3.1-2.9l-.2-.1c-1.1-.4-2.1-.7-2.1-1.4 0-.6.6-1.1 1.4-1.1 1 0 2.1.3 2.9.7 0 0 .2.1.3-.1 0-.1.4-1.1.5-1.2 0-.1 0-.2-.1-.3-.8-.5-2-.9-3.2-.9h-.2c-2.1 0-3.5 1.2-3.5 3 0 1.9 1.6 2.5 3.1 2.9l.2.1c1.1.3 2 .6 2 1.4 0 .7-.6 1.2-1.6 1.2-.4 0-1.6 0-2.9-.8-.2-.1-.2-.2-.4-.2-.1 0-.2-.1-.3.1l-.4 1.3zM49 40c-.1.2 0 .2 0 .2.2.2.4.3.6.4 1.1.6 2.2.8 3.3.8 2.3 0 3.7-1.2 3.7-3.1 0-1.8-1.6-2.4-3.1-2.9l-.2-.1c-1.1-.4-2.1-.7-2.1-1.4 0-.6.6-1.1 1.4-1.1 1 0 2.1.3 2.9.7 0 0 .2.1.3-.1 0-.1.4-1.1.5-1.2 0-.1 0-.2-.1-.3-.8-.5-2-.9-3.2-.9h-.2c-2.1 0-3.5 1.2-3.5 3 0 1.9 1.6 2.5 3.1 2.9l.2.1c1.1.3 2 .6 2 1.4 0 .7-.6 1.2-1.6 1.2-.4 0-1.6 0-2.9-.8-.2-.1-.3-.2-.4-.2 0 0-.2-.1-.3.1L49 40zm24.5-5.9c-.2-.6-.5-1.2-.9-1.6-.4-.5-.9-.8-1.4-1.1-.6-.3-1.3-.4-2-.4-.8 0-1.4.1-2 .4s-1.1.6-1.4 1.1c-.4.5-.7 1-.9 1.6-.2.6-.3 1.3-.3 2s.1 1.4.3 2c.2.6.5 1.2.9 1.6.4.5.9.8 1.4 1.1.6.3 1.3.4 2 .4.8 0 1.4-.1 2-.4.6-.3 1.1-.6 1.4-1.1.4-.5.7-1 .9-1.6.2-.6.3-1.3.3-2-.1-.6-.2-1.3-.3-2m-1.9 2.1c0 1.1-.2 2-.6 2.6-.4.6-1 .9-1.8.9s-1.4-.3-1.8-.9c-.4-.6-.6-1.5-.6-2.6s.2-2 .6-2.6c.4-.6 1-.9 1.8-.9s1.4.3 1.8.9c.4.6.6 1.5.6 2.6"/><path class="st55" d="M88.9 39.3c-.1-.2-.2-.1-.2-.1-.3.1-.6.2-.9.2-.3.1-.7.1-1 .1-.9 0-1.6-.3-2.2-.8-.5-.5-.8-1.4-.8-2.6 0-1.1.3-1.9.7-2.5.5-.6 1.2-.9 2.1-.9.8 0 1.4.1 2 .3 0 0 .1.1.2-.1.2-.5.3-.8.5-1.3.1-.1-.1-.2-.1-.2-.2-.1-.8-.3-1.3-.3-.4-.1-.8-.1-1.4-.1-.8 0-1.5.1-2.1.4-.6.3-1.1.6-1.5 1.1-.4.5-.7 1-.9 1.6-.2.6-.3 1.3-.3 2 0 1.6.4 2.8 1.3 3.8.8.9 2.1 1.4 3.7 1.4 1 0 2-.2 2.7-.5 0 0 .1-.1.1-.2l-.6-1.3zm9.7-5.5c-.2-.6-.6-1.2-.8-1.5-.4-.4-.8-.8-1.2-.9-.6-.2-1.2-.4-1.9-.4-.8 0-1.5.1-2.1.4-.6.3-1.1.7-1.5 1.1-.4.5-.7 1-.9 1.7-.2.6-.3 1.3-.3 2s.1 1.4.3 2c.2.6.5 1.2.9 1.6.4.5 1 .8 1.6 1.1.6.2 1.4.4 2.3.4 1.8 0 2.8-.4 3.2-.6.1 0 .1-.1.1-.3l-.3-1.2c-.1-.2-.2-.1-.2-.1-.5.2-1.1.5-2.6.5-1 0-1.7-.3-2.2-.8-.5-.5-.7-1.2-.7-2.1h6.4s.2 0 .2-.2c-.1 0 .1-1.3-.3-2.7m-6.4 1.3c.1-.6.3-1.1.5-1.5.4-.6 1-.9 1.8-.9s1.4.3 1.8.9c.3.4.4.9.4 1.5h-4.5zm-44.7-1.3c-.2-.6-.6-1.2-.8-1.5-.4-.4-.8-.8-1.2-.9-.5-.2-1.1-.4-1.8-.4-.8 0-1.5.1-2.1.4-.6.3-1.1.7-1.5 1.1-.4.5-.7 1-.9 1.7-.2.6-.3 1.3-.3 2s.1 1.4.3 2c.2.6.5 1.2.9 1.6.4.5 1 .8 1.6 1.1.6.2 1.4.4 2.3.4 1.8 0 2.8-.4 3.2-.6.1 0 .1-.1.1-.3l-.4-1.2c-.1-.2-.2-.1-.2-.1-.5.2-1.1.5-2.6.5-1 0-1.7-.3-2.2-.8-.5-.5-.7-1.2-.7-2.1h6.4s.2 0 .2-.2c-.1 0 .1-1.3-.3-2.7m-6.4 1.3c.1-.6.3-1.1.5-1.5.4-.6 1-.9 1.8-.9s1.4.3 1.8.9c.3.4.4.9.4 1.5h-4.5z"/><path class="st2" d="M29.9 34.8h-1c-.5 0-1.1.1-1.6.2s-.9.3-1.3.6-.7.6-.9 1.1c-.2.4-.3.9-.3 1.5s.1 1.1.3 1.5c.2.4.5.7.8 1 .4.3.8.4 1.3.6.5.1 1.1.2 1.7.2.7 0 1.3-.1 1.9-.2.6-.1 1.4-.3 1.6-.3.2 0 .4-.1.4-.1.2 0 .1-.2.1-.2v-5.8c0-1.3-.3-2.2-1-2.8-.6-.8-1.6-1.1-2.9-1.1-.5 0-1.2.1-1.7.2 0 0-1.4.3-2 .7 0 0-.1.1-.1.3l.5 1.2c.1.2.2.1.2.1l.1-.1c1.2-.7 2.8-.6 2.8-.6.7 0 1.2.1 1.6.4.3.3.5.7.5 1.5v.3l-1-.2m-2.6 4.5c-.3-.2-.3-.2-.4-.4-.1-.2-.2-.5-.2-.8 0-.6.2-1 .6-1.2 0 0 .6-.5 1.9-.5.9 0 1.7.1 1.7.1v2.9s-.8.2-1.7.2c-1.3.2-1.9-.3-1.9-.3"/><path class="st55" d="M81.3 31.5c0-.1-.1-.2-.1-.2-.1 0-.7-.2-1.1-.2-.8 0-1.2.1-1.6.3-.4.2-.8.5-1.1.8v-.8c0-.1-.1-.2-.2-.2h-1.6c-.1 0-.2.1-.2.2v9.5c0 .1.1.2.2.2h1.7c.1 0 .2-.1.2-.2v-4.8c0-.6.1-1.3.2-1.7.1-.4.3-.7.6-.9.2-.2.5-.4.8-.5.3-.1.6-.1.9-.1.3 0 .7.1.7.1.1 0 .2-.1.2-.2.1-.2.4-1.1.4-1.3m-15.7-4.4c-.2 0-.4-.1-.6-.1-.2 0-.5-.1-.9-.1-1.2 0-2.1.3-2.7 1-.6.6-1.1 1.6-1.3 2.9l-.1.4h-1.4s-.2 0-.2.2l-.2 1.3c0 .1 0 .2.2.2h1.4l-1.4 8c-.1.6-.2 1.2-.4 1.6-.1.4-.3.7-.4.9-.2.2-.3.4-.6.5-.2.1-.5.1-.8.1-.2 0-.4 0-.5-.1-.2 0-.2-.1-.3-.1 0 0-.2-.1-.2.1-.2.1-.5 1.1-.6 1.3 0 .1 0 .2.1.3.2.1.3.1.6.2.4.1.7.1.9.1.6 0 1.1-.1 1.6-.2.4-.2.8-.4 1.2-.8.4-.4.6-.8.8-1.4.2-.6.4-1.3.6-2.1l1.4-8.1h2.1s.2 0 .2-.2l.2-1.3c0-.1 0-.2-.2-.2h-2s.1-.8.3-1.4c.1-.3.3-.5.4-.7.2-.2.3-.3.5-.3.2-.1.4-.1.7-.1.2 0 .4 0 .5.1.2 0 .3.1.3.1.2.1.2 0 .3-.1l.5-1.3c.2-.6.1-.7 0-.7M37.1 40.9c0 .1-.1.2-.2.2h-1.7c-.1 0-.2-.1-.2-.2V27.3c0-.1.1-.2.2-.2h1.7c.1 0 .2.1.2.2v13.6z"/></g></svg>