<svg xmlns="http://www.w3.org/2000/svg" width="108" height="30" viewBox="0 0 108 30"><style>.st0,.st1{opacity:.5;fill:url(#SVGID_1_)}.st1{fill:url(#SVGID_2_)}.st2{fill:#fff}.st3{fill:#d8dde6}.st4{fill:url(#SVGID_3_)}.st5{fill:url(#SVGID_4_)}.st6{fill:#74787c}.st7{fill:#73629e}.st8{fill:#5993ce}.st9{fill:#86b980}.st10{fill:#f0a354}.st11{fill:#212221}.st12,.st13,.st14{opacity:.8;fill:#5993ce}.st13,.st14{opacity:.6}.st14{fill:#73629e}.st15{opacity:.4;fill:#5993ce}.st16,.st17{opacity:.6;fill:#f0a354}.st17{opacity:.8}.st18{opacity:.4;fill:#73629e}.st19,.st20,.st21{opacity:.4;fill:#86b980}.st20,.st21{opacity:.8}.st21{fill:#73629e}.st22{opacity:.6;fill:#86b980}.st23{opacity:.4;fill:#f0a354}.st24{opacity:.6}.st25{fill:none;stroke:#886baa;stroke-linecap:round;stroke-linejoin:round;stroke-miterlimit:10}.st26{fill:#886baa}.st27{display:none}.st28,.st29{display:inline}.st29{fill:#482d8c}.st30,.st31,.st32{display:inline;fill:#3ca1da}.st31,.st32{fill:#79c36d}.st32{fill:#f9a151}.st33{fill:#482d8c}.st34{fill:#3ca1da}.st35{fill:#79c36d}.st36{fill:#f9a151}.st37,.st38,.st39,.st40{display:inline;fill:#3da1da}.st38,.st39,.st40{opacity:.8}.st39,.st40{opacity:.6}.st40{fill:#482d8c}.st41,.st42,.st43{display:inline;opacity:.4;fill:#3da1da}.st42,.st43{fill:#482d8c}.st43{fill:#78c36e}.st44{opacity:.8;fill:#78c36e}.st44,.st45,.st46{display:inline}.st45{opacity:.8;fill:#482d8c}.st46{fill:#78c36e}.st47{opacity:.6;fill:#78c36e}.st47,.st48,.st49{display:inline}.st48{opacity:.6}.st49{fill:#dae0e4}.st50{fill:#29347c}.st51{fill:#139cd8}.st52{fill-rule:evenodd;clip-rule:evenodd;fill:#fff}.st53{display:inline;fill:#18afe5}.st54,.st55,.st56{display:inline;fill:#955aa4}.st55,.st56{fill:#f29e1f}.st56{fill:#1fbcb8}.st57{fill:#18afe5}.st58{fill:#955aa4}.st59{fill:#f29e1f}.st60{fill:#1fbcb8}.st61,.st62,.st63,.st64{display:inline;opacity:.8;fill:#18aee5}.st62,.st63,.st64{opacity:.6}.st63,.st64{fill:#955aa4}.st64{opacity:.4;fill:#18aee5}.st65,.st66,.st67{display:inline;opacity:.6;fill:#23bcb8}.st66,.st67{opacity:.8}.st67{opacity:.4;fill:#955aa4}.st68,.st69{display:inline;fill:#23bcb8}.st69{fill:#18aee5}.st70,.st71,.st72{display:inline;opacity:.4;fill:#f19e22}.st71,.st72{opacity:.8}.st72{fill:#955aa4}.st73,.st74,.st75{display:inline;fill:#f19e22}.st74,.st75{opacity:.6}.st75{opacity:.4;fill:#23bcb8}.st76{fill:#054d61}.st77{fill:none;stroke:#18aee5;stroke-linecap:round;stroke-linejoin:round;stroke-miterlimit:10}.st78{fill:#18aee5}.st79,.st80{fill:#fff;stroke:#714899;stroke-width:2;stroke-linecap:round;stroke-linejoin:round;stroke-miterlimit:10}.st80{fill:#ede9f5}.st81{fill:#704898}.st82,.st83,.st84,.st85,.st86{fill:none;stroke:#704898;stroke-width:2;stroke-linecap:round;stroke-linejoin:round;stroke-miterlimit:10}.st83,.st84,.st85,.st86{fill:#a994c2;stroke:#714899}.st84,.st85,.st86{fill:#c6bad8}.st85,.st86{fill:#dccee5}.st86{fill:#f6f3f9}.st87{opacity:.8;fill:#fff}.st88,.st89,.st90,.st91,.st92,.st93,.st94,.st95,.st96{fill:none;stroke:#714899;stroke-width:2;stroke-linecap:round;stroke-linejoin:round;stroke-miterlimit:10}.st89,.st90,.st91,.st92,.st93,.st94,.st95,.st96{fill:#fff;stroke-width:1.3}.st90,.st91,.st92,.st93,.st94,.st95,.st96{fill:#ede9f5}.st91,.st92,.st93,.st94,.st95,.st96{fill:none;stroke:#704898}.st92,.st93,.st94,.st95,.st96{fill:#a994c2;stroke:#714899}.st93,.st94,.st95,.st96{fill:#c6bad8}.st94,.st95,.st96{fill:#dccee5}.st95,.st96{fill:#f6f3f9}.st96{fill:none}</style><g id="header_-_Heroku"><path class="st2" d="M15.4 9.4h3c1.4-1.5 2-3.2 2.2-4.9h-3c-.3 1.7-1.1 3.3-2.2 4.9z"/><path class="st2" d="M24.6 0H3.1C1.6 0 .4 1.2.4 2.7v24.6c0 1.5 1.2 2.7 2.7 2.7h21.5c1.5 0 2.7-1.2 2.7-2.7V2.7c0-1.5-1.2-2.7-2.7-2.7zm1.2 27.3c0 .7-.5 1.2-1.2 1.2H3.1c-.7 0-1.2-.5-1.2-1.2V2.7c0-.7.5-1.2 1.2-1.2h21.5c.7 0 1.2.5 1.2 1.2v24.6zM76.8 9.6c-2.7 0-5.5 1.7-5.5 5.8s2.8 5.8 5.5 5.8 5.4-1.7 5.4-5.8c.1-4.1-2.7-5.8-5.4-5.8zm0 9.1c-1.6 0-2.5-1.3-2.5-3.4 0-2 .9-3.3 2.5-3.3s2.4 1.2 2.4 3.3c.1 2.1-.8 3.4-2.4 3.4z"/><path class="st2" d="M15.7 12c-2 0-4.1.5-5.6 1V4.5h-3v13l2.1-1s3.4-1.5 6.5-1.5c1.5 0 1.9.8 1.9 1.5v9h3v-9c0-.2 0-1.9-1.3-3.2-.6-.6-1.7-1.3-3.6-1.3zM7.2 25.5l3.3-3-3.3-3zM68.2 13.4c0-2.7-1.7-3.6-4.6-3.6h-4.3v11.1h2.9V17h.8l2.1 3.9h3.2L66 16.6c1.5-.5 2.2-1.5 2.2-3.2zm-4.7 1.3h-1.3v-2.5h1.3c1.2 0 1.8.3 1.8 1.3 0 .9-.5 1.2-1.8 1.2zM95.2 9.8h-3.5l-3.1 4v-4h-3v11.1h3v-3.5l.9-1 2.6 4.5h3.4l-4.1-6.7zM104.6 9.8v6.6c0 1.5-.5 2.2-1.7 2.2s-1.7-.7-1.7-2.2V9.8h-3v6.6c0 2.9 1.4 4.6 4.7 4.6 3.2 0 4.7-1.7 4.7-4.6V9.8h-3zM50.8 16.4h3.6v-2.3h-3.6v-1.8h5V9.8h-8v11.1H56v-2.4h-5.2zM41 13.9h-3.7V9.8h-3v11.1h3v-4.5H41v4.5h3V9.8h-3z"/></g></svg>