<?xml version="1.0" encoding="utf-8"?>
<!-- Generator: Adobe Illustrator 20.0.0, SVG Export Plug-In . SVG Version: 6.00 Build 0)  -->
<svg version="1.1" xmlns="http://www.w3.org/2000/svg" xmlns:xlink="http://www.w3.org/1999/xlink" x="0px" y="0px" width="108px"
	 height="30px" viewBox="0 0 108 30" style="enable-background:new 0 0 108 30;" xml:space="preserve">
<style type="text/css">
	.st0{opacity:0.5;fill:url(#SVGID_1_);}
	.st1{opacity:0.5;fill:url(#SVGID_2_);}
	.st2{fill:#FFFFFF;}
	.st3{fill:#D8DDE6;}
	.st4{fill:url(#SVGID_3_);}
	.st5{fill:url(#SVGID_4_);}
	.st6{display:none;}
	.st7{display:inline;}
	.st8{fill:#74787C;}
	.st9{display:inline;fill:#73629E;}
	.st10{display:inline;fill:#5993CE;}
	.st11{display:inline;fill:#86B980;}
	.st12{display:inline;fill:#F0A354;}
	.st13{fill:#73629E;}
	.st14{fill:#5993CE;}
	.st15{fill:#86B980;}
	.st16{fill:#F0A354;}
	.st17{fill:#212221;}
	.st18{display:inline;opacity:0.8;fill:#5993CE;}
	.st19{display:inline;opacity:0.6;fill:#5993CE;}
	.st20{display:inline;opacity:0.6;fill:#73629E;}
	.st21{display:inline;opacity:0.4;fill:#5993CE;}
	.st22{display:inline;opacity:0.6;fill:#F0A354;}
	.st23{display:inline;opacity:0.8;fill:#F0A354;}
	.st24{display:inline;opacity:0.4;fill:#73629E;}
	.st25{display:inline;opacity:0.4;fill:#86B980;}
	.st26{display:inline;opacity:0.8;fill:#86B980;}
	.st27{display:inline;opacity:0.8;fill:#73629E;}
	.st28{display:inline;opacity:0.6;fill:#86B980;}
	.st29{display:inline;opacity:0.4;fill:#F0A354;}
	.st30{display:inline;opacity:0.6;}
	.st31{fill:none;stroke:#886BAA;stroke-linecap:round;stroke-linejoin:round;stroke-miterlimit:10;}
	.st32{fill:#886BAA;}
	.st33{fill:#482D8C;}
	.st34{fill:#3CA1DA;}
	.st35{fill:#79C36D;}
	.st36{fill:#F9A151;}
	.st37{fill:#3DA1DA;}
	.st38{opacity:0.8;fill:#3DA1DA;}
	.st39{opacity:0.6;fill:#3DA1DA;}
	.st40{opacity:0.6;fill:#482D8C;}
	.st41{opacity:0.4;fill:#3DA1DA;}
	.st42{opacity:0.4;fill:#482D8C;}
	.st43{opacity:0.4;fill:#78C36E;}
	.st44{opacity:0.8;fill:#78C36E;}
	.st45{opacity:0.8;fill:#482D8C;}
	.st46{fill:#78C36E;}
	.st47{opacity:0.6;fill:#78C36E;}
	.st48{opacity:0.6;}
	.st49{display:inline;fill:#DAE0E4;}
	.st50{fill:#29347C;}
	.st51{fill:#139CD8;}
	.st52{fill-rule:evenodd;clip-rule:evenodd;fill:#FFFFFF;}
	.st53{display:inline;fill:#18AFE5;}
	.st54{display:inline;fill:#955AA4;}
	.st55{display:inline;fill:#F29E1F;}
	.st56{display:inline;fill:#1FBCB8;}
	.st57{fill:#18AFE5;}
	.st58{fill:#955AA4;}
	.st59{fill:#F29E1F;}
	.st60{fill:#1FBCB8;}
	.st61{display:inline;opacity:0.8;fill:#18AEE5;}
	.st62{display:inline;opacity:0.6;fill:#18AEE5;}
	.st63{display:inline;opacity:0.6;fill:#955AA4;}
	.st64{display:inline;opacity:0.4;fill:#18AEE5;}
	.st65{display:inline;opacity:0.6;fill:#23BCB8;}
	.st66{display:inline;opacity:0.8;fill:#23BCB8;}
	.st67{display:inline;opacity:0.4;fill:#955AA4;}
	.st68{display:inline;fill:#23BCB8;}
	.st69{display:inline;fill:#18AEE5;}
	.st70{display:inline;opacity:0.4;fill:#F19E22;}
	.st71{display:inline;opacity:0.8;fill:#F19E22;}
	.st72{display:inline;opacity:0.8;fill:#955AA4;}
	.st73{display:inline;fill:#F19E22;}
	.st74{display:inline;opacity:0.6;fill:#F19E22;}
	.st75{display:inline;opacity:0.4;fill:#23BCB8;}
	.st76{fill:#054D61;}
	.st77{fill:none;stroke:#18AEE5;stroke-linecap:round;stroke-linejoin:round;stroke-miterlimit:10;}
	.st78{fill:#18AEE5;}
	.st79{fill:#FFFFFF;stroke:#714899;stroke-width:2;stroke-linecap:round;stroke-linejoin:round;stroke-miterlimit:10;}
	.st80{fill:#EDE9F5;stroke:#714899;stroke-width:2;stroke-linecap:round;stroke-linejoin:round;stroke-miterlimit:10;}
	.st81{fill:#704898;}
	.st82{fill:none;stroke:#704898;stroke-width:2;stroke-linecap:round;stroke-linejoin:round;stroke-miterlimit:10;}
	.st83{fill:#A994C2;stroke:#714899;stroke-width:2;stroke-linecap:round;stroke-linejoin:round;stroke-miterlimit:10;}
	.st84{fill:#C6BAD8;stroke:#714899;stroke-width:2;stroke-linecap:round;stroke-linejoin:round;stroke-miterlimit:10;}
	.st85{fill:#DCCEE5;stroke:#714899;stroke-width:2;stroke-linecap:round;stroke-linejoin:round;stroke-miterlimit:10;}
	.st86{fill:#F6F3F9;stroke:#714899;stroke-width:2;stroke-linecap:round;stroke-linejoin:round;stroke-miterlimit:10;}
	.st87{opacity:0.8;fill:#FFFFFF;}
	.st88{fill:none;stroke:#714899;stroke-width:2;stroke-linecap:round;stroke-linejoin:round;stroke-miterlimit:10;}
	.st89{fill:#FFFFFF;stroke:#714899;stroke-width:1.3;stroke-linecap:round;stroke-linejoin:round;stroke-miterlimit:10;}
	.st90{fill:#EDE9F5;stroke:#714899;stroke-width:1.3;stroke-linecap:round;stroke-linejoin:round;stroke-miterlimit:10;}
	.st91{fill:none;stroke:#704898;stroke-width:1.3;stroke-linecap:round;stroke-linejoin:round;stroke-miterlimit:10;}
	.st92{fill:#A994C2;stroke:#714899;stroke-width:1.3;stroke-linecap:round;stroke-linejoin:round;stroke-miterlimit:10;}
	.st93{fill:#C6BAD8;stroke:#714899;stroke-width:1.3;stroke-linecap:round;stroke-linejoin:round;stroke-miterlimit:10;}
	.st94{fill:#DCCEE5;stroke:#714899;stroke-width:1.3;stroke-linecap:round;stroke-linejoin:round;stroke-miterlimit:10;}
	.st95{fill:#F6F3F9;stroke:#714899;stroke-width:1.3;stroke-linecap:round;stroke-linejoin:round;stroke-miterlimit:10;}
	.st96{fill:none;stroke:#714899;stroke-width:1.3;stroke-linecap:round;stroke-linejoin:round;stroke-miterlimit:10;}
</style>
<g id="bg">
</g>
<g id="containers__x2B__headers">
</g>
<g id="header_-_Heroku">
	<g id="Page-1_2_" sketch:type="MSPage">
		<g id="main_2_" transform="translate(-25.000000, -23.000000)" sketch:type="MSArtboardGroup">
			<g id="nav_2_" transform="translate(25.000000, 23.000000)" sketch:type="MSLayerGroup">
				<path id="logo_2_" sketch:type="MSShapeGroup" class="st2" d="M24.6,0H3.1C1.6,0,0.4,1.2,0.4,2.7v24.6c0,1.5,1.2,2.7,2.7,2.7
					h21.5c1.5,0,2.7-1.2,2.7-2.7V2.7C27.3,1.2,26.1,0,24.6,0z M25.8,27.3c0,0.7-0.5,1.2-1.2,1.2H3.1c-0.7,0-1.2-0.5-1.2-1.2V2.7
					c0-0.7,0.5-1.2,1.2-1.2h21.5c0.7,0,1.2,0.5,1.2,1.2V27.3z M7.2,25.5l3.4-3l-3.4-3V25.5z M19.3,13.3c-0.6-0.6-1.7-1.3-3.6-1.3
					c-2,0-4.1,0.5-5.6,1V4.5h-3v13l2.1-1c0,0,3.4-1.5,6.5-1.5c1.5,0,1.9,0.8,1.9,1.5v9h3v-9C20.6,16.3,20.6,14.6,19.3,13.3z
					 M15.4,9.4h3c1.4-1.5,2-3.2,2.2-4.9h-3C17.3,6.2,16.5,7.8,15.4,9.4z M98.3,16.4V9.8h3v6.6c0,1.5,0.5,2.2,1.7,2.2
					c1.2,0,1.7-0.7,1.7-2.2V9.8h2.9v6.6c0,2.9-1.4,4.6-4.7,4.6C99.7,21,98.3,19.4,98.3,16.4z M85.6,9.8h3v4l3.1-4h3.5l-3.7,4.4
					l4.1,6.7h-3.4l-2.6-4.4l-0.9,1v3.4h-3V9.8z M71.4,15.3c0-4.1,2.8-5.8,5.5-5.8c2.7,0,5.4,1.7,5.4,5.8c0,4.1-2.8,5.8-5.4,5.8
					C74.1,21.1,71.4,19.4,71.4,15.3z M79.3,15.3c0-2-0.9-3.3-2.4-3.3c-1.6,0-2.5,1.2-2.5,3.3c0,2,0.9,3.4,2.5,3.4
					C78.4,18.7,79.3,17.4,79.3,15.3z M59.3,9.8h4.3c2.9,0,4.6,0.9,4.6,3.6c0,1.7-0.7,2.7-2.2,3.2l2.4,4.2h-3.2L63.1,17h-0.8v3.9
					h-2.9V9.8z M63.5,14.7c1.2,0,1.8-0.3,1.8-1.3c0-0.9-0.5-1.3-1.8-1.3h-1.3v2.5H63.5z M47.8,9.8h7.9v2.5h-4.9v1.8h3.5v2.3h-3.5
					v2.1H56v2.4h-8.2V9.8z M34.3,9.8h3v4.1H41V9.8h3v11.1h-3v-4.5h-3.7v4.5h-3V9.8z"/>
			</g>
		</g>
	</g>
</g>
<g id="charts_-_Heroku" class="st6">
</g>
<g id="charts_-_Heroku_2">
</g>
<g id="header_-_Salesforce" class="st6">
</g>
<g id="charts_-_Salesforce" class="st6">
</g>
<g id="Layer_6">
</g>
<g id="colors">
</g>
</svg>
