<svg id="Layer_1" xmlns="http://www.w3.org/2000/svg" width="114.3" height="32.1" viewBox="0 0 114.3 32.1"><style>.st0{fill:#430098}</style><path class="st0" d="M26 0H2.9C1.3 0 0 1.3 0 2.9v26.3c0 1.6 1.3 2.9 2.9 2.9H26c1.6 0 2.9-1.3 2.9-2.9V2.9C28.9 1.3 27.6 0 26 0zm1.3 29.2c0 .7-.6 1.3-1.3 1.3H2.9c-.7 0-1.3-.6-1.3-1.3V2.9c0-.7.6-1.3 1.3-1.3H26c.7 0 1.3.6 1.3 1.3v26.3z"/><path class="st0" d="M7.2 27.3l3.6-3.2-3.6-3.2zM16.5 12.8c-2.2 0-4.4.6-6 1.1V4.8H7.2v13.9l2.3-1s3.7-1.7 7-1.7c1.6 0 2 .9 2 1.7v9.6h3.2v-9.6c0-.2 0-2-1.4-3.4-.7-.7-1.9-1.5-3.8-1.5zM16.1 10h3.2c1.5-1.6 2.2-3.4 2.4-5.2h-3.2c-.4 1.8-1.2 3.6-2.4 5.2zM43.3 14.9h-4v-4.4h-3.2v11.8h3.2v-4.8h4v4.8h3.2V10.5h-3.2zM53.8 17.5h3.7V15h-3.7v-1.9H59v-2.6h-8.4v11.8h8.7v-2.6h-5.5zM72.4 14.3c0-2.8-1.9-3.9-4.9-3.9h-4.6v11.8H66v-4.1h.9l2.3 4.1h3.4L70 17.8c1.6-.6 2.4-1.6 2.4-3.5zm-5 1.5H66V13h1.4c1.3 0 1.9.4 1.9 1.3s-.6 1.5-1.9 1.5zM81.5 10.2c-2.9 0-5.8 1.8-5.8 6.1s3 6.1 5.8 6.1 5.8-1.8 5.8-6.1-2.9-6.1-5.8-6.1zm0 9.8c-1.7 0-2.6-1.4-2.6-3.6s.9-3.5 2.6-3.5c1.7 0 2.6 1.3 2.6 3.5s-.9 3.6-2.6 3.6zM101.1 10.5h-3.7l-3.3 4.2v-4.2h-3.2v11.8h3.2v-3.7l.9-1 2.8 4.7h3.6l-4.3-7.2zM111.2 10.5v7.1c0 1.6-.5 2.4-1.8 2.4s-1.8-.7-1.8-2.4v-7.1h-3.2v7.1c0 3.1 1.5 4.9 5 4.9s5-1.8 5-4.9v-7.1h-3.2z"/></svg>