<svg xmlns="http://www.w3.org/2000/svg" width="600" height="430" viewBox="0 0 600 430"><style>.st0{fill:#d5d5d5}.st1{fill:#fff}.st2{fill:#ede9f5}.st3{fill:none;stroke:#704898;stroke-width:2;stroke-linecap:round;stroke-linejoin:round;stroke-miterlimit:10}.st4{fill:#704898}.st5{opacity:.5}.st10,.st11,.st12,.st13,.st14,.st6,.st7,.st8,.st9{fill:none;stroke:#704898;stroke-linecap:round;stroke-linejoin:round;stroke-miterlimit:10}.st10,.st11,.st12,.st13,.st14,.st7,.st8,.st9{stroke-width:1.5439}.st10,.st11,.st12,.st13,.st14,.st8,.st9{stroke:#dccee5;stroke-width:2}.st10,.st11,.st12,.st13,.st14,.st9{fill:#fff;stroke:#714899}.st10,.st11,.st12,.st13,.st14{fill:#ede9f5}.st11,.st12,.st13,.st14{fill:#a994c2}.st12,.st13,.st14{fill:#c6bad8}.st13,.st14{fill:#dccee5}.st14{fill:#f6f3f9}.st15{opacity:.8;fill:#fff}.st16,.st17,.st18,.st19,.st20,.st21,.st22,.st23,.st24{fill:none;stroke:#714899;stroke-width:2;stroke-linecap:round;stroke-linejoin:round;stroke-miterlimit:10}.st17,.st18,.st19,.st20,.st21,.st22,.st23,.st24{fill:#fff;stroke-width:1.3}.st18,.st19,.st20,.st21,.st22,.st23,.st24{fill:#ede9f5}.st19,.st20,.st21,.st22,.st23,.st24{fill:none;stroke:#704898}.st20,.st21,.st22,.st23,.st24{fill:#a994c2;stroke:#714899}.st21,.st22,.st23,.st24{fill:#c6bad8}.st22,.st23,.st24{fill:#dccee5}.st23,.st24{fill:#f6f3f9}.st24{fill:none}.st25{fill:#5893ce}.st26,.st27,.st28{fill:#fff;stroke:#d6d4e1;stroke-width:1.0533;stroke-linecap:round;stroke-linejoin:round;stroke-miterlimit:10}.st27,.st28{stroke-width:1.0461}.st28{stroke-width:1.0313}.st29{opacity:.5;fill:url(#SVGID_1_)}.st30{fill:#dccee5;stroke:#714899;stroke-width:2;stroke-linejoin:round;stroke-miterlimit:10}.st31{fill:#d8dde6}.st32{fill:#73629e}.st33{fill:#5993ce}.st34{fill:#86b980}.st35{fill:#f0a354}.st36{opacity:.5;fill:url(#SVGID_2_)}.st37{fill:#fff;stroke:#d6d4e1;stroke-linecap:round;stroke-linejoin:round;stroke-miterlimit:10}.st38,.st39{opacity:.5;fill:url(#SVGID_3_)}.st39{fill:url(#SVGID_4_)}.st40,.st41{stroke:#714899;stroke-width:1.4932;stroke-linejoin:round;stroke-miterlimit:10}.st40{stroke-linecap:round;fill:none}.st41{fill:#dccee5}.st42{opacity:.5;fill:url(#SVGID_5_)}.st43{fill:none;stroke:#dccee5;stroke-width:3.4797;stroke-linecap:round;stroke-linejoin:round;stroke-miterlimit:10}.st44,.st45{opacity:.5;fill:url(#SVGID_6_)}.st45{fill:url(#SVGID_7_)}.st46,.st47{stroke:#714899;stroke-width:1.5389;stroke-linejoin:round;stroke-miterlimit:10}.st46{stroke-linecap:round;fill:none}.st47{fill:#dccee5}</style><g id="lines_1_"><path class="st8" d="M491.1 248.8H575M497.2 254.9h-22.8c-8.8 0-16 7.2-16 16v50.3c0 8.8-7.2 16-16 16h-22.1"/><path class="st8" d="M458.4 280.1v7.2c0 8.8-7.2 16-16 16h-22.1M460.7 262.9c-2.9 3.3-7.2 5.4-12 5.4h-28.4M496.9 243.5h-22.8c-8.8 0-16-7.2-16-16v-50.3c0-8.8-7.2-16-16-16H420"/><path class="st8" d="M458.1 218.3v-7.2c0-8.8-7.2-16-16-16H420M460.3 235.5c-2.9-3.3-7.2-5.4-12-5.4H420M269.5 81.1v130c0 11.8-7.2 19-16 19h-33.3"/><path class="st8" d="M269.5 163v16.1c0 8.8-7.2 16-16 16h-33.3M269.5 143.1v2.1c0 8.8-7.2 16-16 16h-33.3M284.5 81.1v130c0 11.8 7.2 19 16 19h30.8"/><path class="st8" d="M284.5 163v16.1c0 8.8 7.2 16 16 16h30.8M284.5 143.1v2.1c0 8.8 7.2 16 16 16h30.8M275.8 403.2v-215c0-11.8-7.2-19-16-19h-39.6"/><path class="st8" d="M275.8 236.2v-16.1c0-8.8-7.2-16-16-16h-39.6M275.8 270.1V254c0-8.8-7.2-16-16-16h-39.6M284.4 399.9v-112c0-11.8 7.2-19 16-19H340"/><path class="st8" d="M284.4 336v-16.1c0-8.8 7.2-16 16-16H340M284.4 369.9v-16.1c0-8.8 7.2-16 16-16h43.1M147.1 84.1v130c0 11.8 7.2 19 16 19h20.7"/><path class="st8" d="M147.1 166v16.1c0 8.8 7.2 16 16 16h20.7M147.1 146.1v2.1c0 8.8 7.2 16 16 16h20.7M136.8 83.7v22.8c0 8.8-7.2 16-16 16h-31c-8.8 0-16 7.2-16 16v22.1M19.7 29.1v77.4c0 8.8 7.2 16 16 16h11.7c8.8 0 16 7.2 16 16v21.8"/></g></svg>