<svg xmlns="http://www.w3.org/2000/svg" width="59" height="59" viewBox="0 0 59 59"><style>.st0{fill:#d5d5d5}.st1{fill:#fff}.st2{fill:#ede9f5}.st3{fill:none;stroke:#704898;stroke-width:2;stroke-linecap:round;stroke-linejoin:round;stroke-miterlimit:10}.st4{fill:#704898}.st10,.st11,.st5,.st6,.st7,.st8,.st9{fill:none;stroke:#dccee5;stroke-width:2;stroke-linecap:round;stroke-linejoin:round;stroke-miterlimit:10}.st10,.st11,.st6,.st7,.st8,.st9{fill:#fff;stroke:#714899}.st10,.st11,.st7,.st8,.st9{fill:#ede9f5}.st10,.st11,.st8,.st9{fill:#a994c2}.st10,.st11,.st9{fill:#c6bad8}.st10,.st11{fill:#dccee5}.st11{fill:#f6f3f9}.st12{opacity:.8;fill:#fff}.st13{fill:none;stroke-width:2;stroke-linecap:round;stroke-linejoin:round}.st13,.st14,.st15{stroke:#714899;stroke-miterlimit:10}.st14{stroke-width:1.3;stroke-linecap:round;stroke-linejoin:round;fill:#fff}.st15{fill:#ede9f5}.st15,.st16,.st17{stroke-width:1.3;stroke-linecap:round;stroke-linejoin:round}.st16{stroke-miterlimit:10;fill:none;stroke:#704898}.st17{fill:#a994c2;stroke:#714899}.st17,.st18,.st19{stroke-miterlimit:10}.st18{stroke:#714899;stroke-width:1.3;stroke-linecap:round;stroke-linejoin:round;fill:#c6bad8}.st19{fill:#dccee5}.st19,.st20,.st21{stroke:#714899;stroke-width:1.3;stroke-linecap:round;stroke-linejoin:round}.st20{stroke-miterlimit:10;fill:#f6f3f9}.st21{fill:none}.st21,.st22,.st23{stroke-miterlimit:10}.st22{stroke-width:2;fill:none;stroke:#aaa}.st23{fill:#fff;stroke:#d6d4e1;stroke-linecap:round;stroke-linejoin:round}.st24{fill:#5893ce}.st25{opacity:.5;fill:url(#SVGID_1_)}.st26{fill:#dccee5;stroke:#714899;stroke-width:2;stroke-linejoin:round;stroke-miterlimit:10}.st27{fill:#d8dde6}.st28{fill:#73629e}.st29{fill:#5993ce}.st30{fill:#86b980}.st31{fill:#f0a354}</style><g id="Layer_3"><path class="st4" d="M52.7 0H6.3C2.8 0 0 2.8 0 6.3v46.3C0 56.2 2.8 59 6.3 59h46.3c3.5 0 6.3-2.8 6.3-6.3V6.3C59 2.8 56.2 0 52.7 0zM57 52.7c0 2.4-1.9 4.3-4.3 4.3H6.3C3.9 57 2 55.1 2 52.7V6.3C2 3.9 3.9 2 6.3 2h46.3C55.1 2 57 3.9 57 6.3v46.4z"/><path class="st4" d="M21.9 34.4c.9 1.5 2.3 2.7 4.1 3.4.1 0 .2.1.4.1s.4-.1.6-.2c.3-.2.4-.5.4-.8v-14c0-.3-.2-.6-.4-.8-.3-.2-.6-.2-.9-.1-1.7.7-3 1.8-3.9 3.3l-5.1-2.4c.1-.3.1-.6.1-1 0-2.5-2.1-4.6-4.6-4.6S8 19.4 8 21.9s2.1 4.6 4.6 4.6c1.5 0 2.8-.7 3.6-1.8l5.1 2.4c-.3.9-.5 1.9-.5 2.9 0 .9.2 1.8.4 2.7l-5 2.5c-.8-1-2.1-1.7-3.5-1.7-2.5 0-4.6 2.1-4.6 4.6s2.1 4.6 4.6 4.6 4.6-2.1 4.6-4.6c0-.4-.1-.7-.1-1.1l4.7-2.6zm-9.4-10c-1.4 0-2.6-1.2-2.6-2.6s1.2-2.6 2.6-2.6 2.6 1.2 2.6 2.6-1.2 2.6-2.6 2.6zm12.8.2v10.6c-1.7-1.2-2.7-3.2-2.7-5.3 0-2.1 1-4.1 2.7-5.3zM12.5 40.5c-1.4 0-2.6-1.2-2.6-2.6 0-1.4 1.2-2.6 2.6-2.6s2.6 1.2 2.6 2.6c-.1 1.5-1.2 2.6-2.6 2.6zM26.4 9.3c-2.5 0-4.6 2.1-4.6 4.6s2.1 4.6 4.6 4.6c.6 0 1-.4 1-1v-7.1c0-.7-.5-1.1-1-1.1zm-1 6.9c-.9-.4-1.6-1.3-1.6-2.4s.6-2 1.6-2.4v4.8zM26.4 41.4c-2.5 0-4.6 2.1-4.6 4.6s2.1 4.6 4.6 4.6c.6 0 1-.4 1-1v-7.1c0-.6-.5-1.1-1-1.1zm-1 7c-.9-.4-1.6-1.3-1.6-2.4s.6-2 1.6-2.4v4.8zM50.5 21c.5-.2.7-.8.5-1.3-.2-.5-.8-.7-1.3-.5l-15.6 7.2V10.3c0-.6-.4-1-1-1s-1 .4-1 1v39.2c0 .6.4 1 1 1s1-.4 1-1V33l15.5 7.6c.1.1.3.1.4.1.4 0 .7-.2.9-.6.2-.5 0-1.1-.5-1.3L34 30.7v-2.1L50.5 21z"/></g></svg>