<svg xmlns="http://www.w3.org/2000/svg" width="35.8" height="29.1" viewBox="0 0 35.8 29.1"><style>.st0{fill:#d5d5d5}.st1{fill:#fff}.st2{fill:#ede9f5}.st3,.st4,.st5,.st6{fill:none;stroke:#704898;stroke-width:2;stroke-linecap:round;stroke-linejoin:round;stroke-miterlimit:10}.st4,.st5,.st6{stroke:#dccee5}.st5,.st6{fill:#fff;stroke:#714899}.st6{fill:#ede9f5}.st7{fill:#704898}.st10,.st11,.st8,.st9{fill:#a994c2;stroke:#714899;stroke-width:2;stroke-linecap:round;stroke-linejoin:round;stroke-miterlimit:10}.st10,.st11,.st9{fill:#c6bad8}.st10,.st11{fill:#dccee5}.st11{fill:#f6f3f9}.st12{opacity:.8;fill:#fff}.st13{fill:none;stroke-width:2;stroke-linecap:round;stroke-linejoin:round}.st13,.st14,.st15{stroke:#714899;stroke-miterlimit:10}.st14{stroke-width:1.3;stroke-linecap:round;stroke-linejoin:round;fill:#fff}.st15{fill:#ede9f5}.st15,.st16,.st17{stroke-width:1.3;stroke-linecap:round;stroke-linejoin:round}.st16{stroke-miterlimit:10;fill:none;stroke:#704898}.st17{fill:#a994c2;stroke:#714899}.st17,.st18,.st19{stroke-miterlimit:10}.st18{stroke:#714899;stroke-width:1.3;stroke-linecap:round;stroke-linejoin:round;fill:#c6bad8}.st19{fill:#dccee5}.st19,.st20,.st21{stroke:#714899;stroke-width:1.3;stroke-linecap:round;stroke-linejoin:round}.st20{stroke-miterlimit:10;fill:#f6f3f9}.st21{fill:none}.st21,.st22,.st23{stroke-miterlimit:10}.st22{stroke-width:2;fill:none;stroke:#aaa}.st23{fill:#fff;stroke:#d6d4e1;stroke-linecap:round;stroke-linejoin:round}.st24{fill:#5893ce}.st25{opacity:.5;fill:url(#SVGID_1_)}.st26{fill:#dccee5;stroke:#714899;stroke-width:2;stroke-linejoin:round;stroke-miterlimit:10}.st27{fill:#d8dde6}.st28{fill:#73629e}.st29{fill:#5993ce}.st30{fill:#86b980}.st31{fill:#f0a354}</style><path class="st7" d="M35.8 3.4c-1.3.6-2.7 1-4.2 1.2 1.5-.9 2.7-2.3 3.2-4.1-1.4.8-3 1.5-4.7 1.8A7.24 7.24 0 0 0 24.8 0c-4.1 0-7.3 3.3-7.3 7.3 0 .6.1 1.1.2 1.7-6.2-.3-11.6-3.2-15.2-7.7-.6 1.1-1 2.3-1 3.7 0 2.5 1.3 4.8 3.3 6.1-1.2 0-2.3-.4-3.3-.9v.1c0 3.6 2.5 6.5 5.9 7.2-.6.2-1.3.3-1.9.3-.5 0-.9 0-1.4-.1.9 2.9 3.6 5 6.9 5.1-2.5 2-5.7 3.1-9.1 3.1-.6 0-1.2 0-1.8-.1 3.2 2.1 7.1 3.3 11.2 3.3 13.5 0 20.9-11.2 20.9-20.9v-.9c1.3-1.1 2.6-2.4 3.6-3.9z" id="Layer_1"/></svg>