<svg xmlns="http://www.w3.org/2000/svg" width="354" height="524.5" viewBox="0 0 354 524.5"><style>.st0{fill:#d5d5d5}.st1{fill:#fff}.st2{fill:#ede9f5}.st3{fill:none;stroke:#704898;stroke-width:2;stroke-linecap:round;stroke-linejoin:round;stroke-miterlimit:10}.st4{fill:#704898}.st5{opacity:.5}.st10,.st11,.st12,.st13,.st14,.st6,.st7,.st8,.st9{fill:none;stroke:#704898;stroke-linecap:round;stroke-linejoin:round;stroke-miterlimit:10}.st10,.st11,.st12,.st13,.st14,.st7,.st8,.st9{stroke-width:1.5439}.st10,.st11,.st12,.st13,.st14,.st8,.st9{stroke:#dccee5;stroke-width:2}.st10,.st11,.st12,.st13,.st14,.st9{fill:#fff;stroke:#714899}.st10,.st11,.st12,.st13,.st14{fill:#ede9f5}.st11,.st12,.st13,.st14{fill:#a994c2}.st12,.st13,.st14{fill:#c6bad8}.st13,.st14{fill:#dccee5}.st14{fill:#f6f3f9}.st15{opacity:.8;fill:#fff}.st16,.st17,.st18,.st19,.st20,.st21,.st22,.st23,.st24{fill:none;stroke:#714899;stroke-width:2;stroke-linecap:round;stroke-linejoin:round;stroke-miterlimit:10}.st17,.st18,.st19,.st20,.st21,.st22,.st23,.st24{fill:#fff;stroke-width:1.3}.st18,.st19,.st20,.st21,.st22,.st23,.st24{fill:#ede9f5}.st19,.st20,.st21,.st22,.st23,.st24{fill:none;stroke:#704898}.st20,.st21,.st22,.st23,.st24{fill:#a994c2;stroke:#714899}.st21,.st22,.st23,.st24{fill:#c6bad8}.st22,.st23,.st24{fill:#dccee5}.st23,.st24{fill:#f6f3f9}.st24{fill:none}.st25{fill:#5893ce}.st26,.st27,.st28{fill:#fff;stroke:#d6d4e1;stroke-width:1.0533;stroke-linecap:round;stroke-linejoin:round;stroke-miterlimit:10}.st27,.st28{stroke-width:1.0461}.st28{stroke-width:1.0313}.st29{opacity:.5;fill:url(#SVGID_1_)}.st30{fill:#dccee5;stroke:#714899;stroke-width:2;stroke-linejoin:round;stroke-miterlimit:10}.st31{fill:#d8dde6}.st32{fill:#73629e}.st33{fill:#5993ce}.st34{fill:#86b980}.st35{fill:#f0a354}.st36{opacity:.5;fill:url(#SVGID_2_)}.st37{fill:#fff;stroke:#d6d4e1;stroke-linecap:round;stroke-linejoin:round;stroke-miterlimit:10}.st38,.st39{opacity:.5;fill:url(#SVGID_3_)}.st39{fill:url(#SVGID_4_)}.st40,.st41{stroke:#714899;stroke-width:1.4932;stroke-linejoin:round;stroke-miterlimit:10}.st40{stroke-linecap:round;fill:none}.st41{fill:#dccee5}.st42{opacity:.5;fill:url(#SVGID_5_)}.st43,.st44{opacity:.5;fill:url(#SVGID_6_)}.st44{fill:url(#SVGID_7_)}.st45,.st46{stroke:#714899;stroke-width:1.5389;stroke-linejoin:round;stroke-miterlimit:10}.st45{stroke-linecap:round;fill:none}.st46{fill:#dccee5}</style><g id="lines_1_"><path class="st8" d="M182.2 108.6v13.2c0 8.8 7.2 16 16 16h50.3c8.8 0 16 7.2 16 16v22.1M169.8 108.6v13.5c0 8.8-7.2 16-16 16h-50.3c-8.8 0-16 7.2-16 16v22.1M176.1 99.3v76.6M29.5 229v114.2c0 11.8 7.2 19 16 19h88"/><path class="st8" d="M29.5 295.1v16.1c0 8.8 7.2 16 16 16h88M29.5 275.2v2.1c0 8.8 7.2 16 16 16h88M323.1 229v113.2c0 11.8-7.2 19-16 19h-96"/><path class="st8" d="M323.1 295.1v16.1c0 8.8-7.2 16-16 16h-96M323.1 275.5v2.1c0 8.8-7.2 16-16 16h-96M180.2 359.4v-16.1c0-8.8 7.2-16 16-16h77.1M180.2 379.3v-2.1c0-8.8 7.2-16 16-16h77.1"/><path class="st8" d="M180.2 422V312.3c0-11.8 7.2-19 16-19h77.1M171 359.4v-16.1c0-8.8-7.2-16-16-16H77.8M171 380.3v-2.1c0-8.8-7.2-16-16-16H77.8"/><path class="st8" d="M171 422V312.3c0-11.8-7.2-19-16-19H77.8M316 215.7H126.6c-11.8 0-19-7.2-19-16v-31.3"/><path class="st8" d="M214.3 215.7h-16.1c-8.8 0-16-7.2-16-16v-33.8M273.5 215.7h-2.1c-8.8 0-16-7.2-16-16v-28.6"/><path class="st8" d="M39.6 227.2h189.3c11.8 0 19-7.2 19-16v-36.1"/><path class="st8" d="M141.3 227.2h16.1c8.8 0 16-7.2 16-16v-37.6M82 227.2h2.1c8.8 0 16-7.2 16-16v-43M176 107.2V19.5h-60"/></g></svg>