<svg xmlns="http://www.w3.org/2000/svg" width="750.6" height="376.1" viewBox="0 0 750.6 376.1"><style>.st0{display:none}.st1,.st2{display:inline;fill:#d5d5d5}.st2{fill:#fff}.st3{fill:#ede9f5}.st3,.st4{display:inline}.st5{fill:none;stroke:#704898;stroke-width:2;stroke-linecap:round;stroke-linejoin:round;stroke-miterlimit:10}.st6{fill:#704898}.st10,.st7,.st8,.st9{fill:none;stroke:#dccee5;stroke-width:2;stroke-linecap:round;stroke-linejoin:round;stroke-miterlimit:10}.st10,.st8,.st9{display:inline}.st10,.st9{fill:#fff;stroke:#714899}.st10{fill:#ede9f5}.st11{fill:#704898}.st11,.st12,.st13{display:inline}.st12{stroke:#704898;stroke-width:2;stroke-linecap:round;stroke-linejoin:round;stroke-miterlimit:10;fill:none}.st13{fill:#a994c2}.st13,.st14,.st15{stroke:#714899;stroke-width:2;stroke-linecap:round;stroke-linejoin:round;stroke-miterlimit:10}.st14{display:inline;fill:#c6bad8}.st15{fill:#dccee5}.st15,.st16,.st17{display:inline}.st16{stroke:#714899;stroke-width:2;stroke-linecap:round;stroke-linejoin:round;stroke-miterlimit:10;fill:#f6f3f9}.st17{opacity:.8;fill:#fff}.st18,.st19,.st20{display:inline;stroke:#714899;stroke-miterlimit:10}.st18{fill:none;stroke-linecap:round;stroke-linejoin:round;stroke-width:2}.st19,.st20{stroke-width:1.3}.st19{stroke-linecap:round;stroke-linejoin:round;fill:#fff}.st20{fill:#ede9f5}.st20,.st21,.st22,.st23{stroke-linecap:round;stroke-linejoin:round}.st21{display:inline;fill:none;stroke-width:1.3;stroke-miterlimit:10;stroke:#704898}.st22,.st23{stroke:#714899}.st22{display:inline;stroke-width:1.3;stroke-miterlimit:10;fill:#a994c2}.st23{fill:#c6bad8}.st23,.st24,.st25{display:inline;stroke-width:1.3;stroke-miterlimit:10}.st24{stroke:#714899;stroke-linecap:round;stroke-linejoin:round;fill:#dccee5}.st25{fill:#f6f3f9}.st25,.st26,.st27{stroke:#714899;stroke-linecap:round;stroke-linejoin:round}.st26{display:inline;stroke-width:1.3;stroke-miterlimit:10;fill:none}.st27{fill:#ede9f5}.st27,.st28,.st29{stroke-width:2;stroke-miterlimit:10}.st28{stroke-linecap:round;stroke-linejoin:round;fill:#fff;stroke:#714899}.st29{display:inline;fill:none;stroke:#aaa}.st30{fill:#5893ce}.st31{fill:#fff}.st32{opacity:.5;fill:url(#SVGID_1_)}.st33,.st34{stroke:#714899;stroke-width:2;stroke-linejoin:round;stroke-miterlimit:10}.st33{stroke-linecap:round;fill:none}.st34{fill:#dccee5}.st35{fill:#d8dde6}.st36{fill:#73629e}.st37{fill:#5993ce}.st38{fill:#86b980}.st39{fill:#f0a354}.st40{display:inline;fill:#fff;stroke:#d6d4e1;stroke-linecap:round;stroke-linejoin:round;stroke-miterlimit:10}</style><g id="lines_1_"><path class="st7" d="M665.7 220.7h83.9M652.4 226.8h-22.8c-8.8 0-16 7.2-16 16v50.3c0 8.8-7.2 16-16 16h-22.1"/><path class="st7" d="M613.6 252v7.2c0 8.8-7.2 16-16 16h-22.1M615.9 234.8c-2.9 3.3-7.2 5.4-12 5.4h-28.4M652.1 215.4h-22.8c-8.8 0-16-7.2-16-16v-50.3c0-8.8-7.2-16-16-16h-22.1"/><path class="st7" d="M613.2 190.1V183c0-8.8-7.2-16-16-16h-22.1M615.5 207.4c-2.9-3.3-7.2-5.4-12-5.4h-28.4M367.4 53v130c0 11.8-7.2 19-16 19h-33.3"/><path class="st7" d="M367.4 134.9V151c0 8.8-7.2 16-16 16h-33.3M367.4 115v2.1c0 8.8-7.2 16-16 16h-33.3M385.4 53v130c0 11.8 7.2 19 16 19h30.8"/><path class="st7" d="M385.4 134.9V151c0 8.8 7.2 16 16 16h30.8M385.4 115v2.1c0 8.8 7.2 16 16 16h30.8M373.7 375.1V160c0-11.8-7.2-19-16-19h-39.6"/><path class="st7" d="M373.7 208.1V192c0-8.8-7.2-16-16-16h-39.6M373.7 242v-16.1c0-8.8-7.2-16-16-16h-39.6M385.4 371.1v-112c0-11.8 7.2-19 16-19H441"/><path class="st7" d="M385.4 307.2v-16.1c0-8.8 7.2-16 16-16H441M385.4 341.1V325c0-8.8 7.2-16 16-16h43.1M204.5 56v130c0 11.8 7.2 19 16 19h20.7"/><path class="st7" d="M204.5 137.9V154c0 8.8 7.2 16 16 16h20.7M204.5 118v2.1c0 8.8 7.2 16 16 16h20.7M188.5 55.6v22.8c0 8.8-7.2 16-16 16H97.9c-8.8 0-16 7.2-16 16v22.1M1 1v77.4c0 8.8 7.2 16 16 16h39.3c8.8 0 16 7.2 16 16v21.8"/></g><g id="dots" class="st0"><path class="st29" d="M-21-12.8h241.9c8.8 0 16 7.2 16 16v51.7c0 8.8 7.2 16 16 16h28.2M54.3 13.9h-240.6c-8.8 0-16 7.2-16 16v51.7c0 8.8-7.2 16-16 16h-28.2"/></g></svg>