<svg xmlns="http://www.w3.org/2000/svg" width="32.3" height="35.5" viewBox="0 0 32.3 35.5"><style>.st0{fill:#d5d5d5}.st1{fill:#fff}.st2{fill:#ede9f5}.st3,.st4,.st5,.st6{fill:none;stroke:#704898;stroke-width:2;stroke-linecap:round;stroke-linejoin:round;stroke-miterlimit:10}.st4,.st5,.st6{stroke:#dccee5}.st5,.st6{fill:#fff;stroke:#714899}.st6{fill:#ede9f5}.st7{fill:#704898}.st10,.st11,.st8,.st9{fill:#a994c2;stroke:#714899;stroke-width:2;stroke-linecap:round;stroke-linejoin:round;stroke-miterlimit:10}.st10,.st11,.st9{fill:#c6bad8}.st10,.st11{fill:#dccee5}.st11{fill:#f6f3f9}.st12{opacity:.8;fill:#fff}.st13{fill:none;stroke-width:2;stroke-linecap:round;stroke-linejoin:round}.st13,.st14,.st15{stroke:#714899;stroke-miterlimit:10}.st14{stroke-width:1.3;stroke-linecap:round;stroke-linejoin:round;fill:#fff}.st15{fill:#ede9f5}.st15,.st16,.st17{stroke-width:1.3;stroke-linecap:round;stroke-linejoin:round}.st16{stroke-miterlimit:10;fill:none;stroke:#704898}.st17{fill:#a994c2;stroke:#714899}.st17,.st18,.st19{stroke-miterlimit:10}.st18{stroke:#714899;stroke-width:1.3;stroke-linecap:round;stroke-linejoin:round;fill:#c6bad8}.st19{fill:#dccee5}.st19,.st20,.st21{stroke:#714899;stroke-width:1.3;stroke-linecap:round;stroke-linejoin:round}.st20{stroke-miterlimit:10;fill:#f6f3f9}.st21{fill:none}.st21,.st22,.st23{stroke-miterlimit:10}.st22{stroke-width:2;fill:none;stroke:#aaa}.st23{fill:#fff;stroke:#d6d4e1;stroke-linecap:round;stroke-linejoin:round}.st24{fill:#5893ce}.st25{opacity:.5;fill:url(#SVGID_1_)}.st26{fill:#dccee5;stroke:#714899;stroke-width:2;stroke-linejoin:round;stroke-miterlimit:10}.st27{fill:#d8dde6}.st28{fill:#73629e}.st29{fill:#5993ce}.st30{fill:#86b980}.st31{fill:#f0a354}</style><g id="Layer_1"><path class="st1" d="M29.4 6.7L19.1.8C17.3-.3 15-.3 13.2.8L3 6.7c-1.8 1.1-3 3-3 5.1v11.8c0 2.1 1.1 4.1 3 5.1l10.2 5.9c.9.5 1.9.8 3 .8s2-.3 3-.8l10.2-5.9c1.8-1.1 3-3 3-5.1V11.8c-.1-2.1-1.2-4-3-5.1z"/><path class="st7" d="M29.4 6.7L19.1.8C17.3-.3 15-.3 13.2.8L3 6.7c-1.8 1.1-3 3-3 5.1v11.8c0 2.1 1.1 4.1 3 5.1l10.2 5.9c.9.5 1.9.8 3 .8s2-.3 3-.8l10.2-5.9c1.8-1.1 3-3 3-5.1V11.8c-.1-2.1-1.2-4-3-5.1zm.8 17c0 1.4-.7 2.6-1.9 3.3l-10.2 5.9c-1.2.7-2.6.7-3.8 0L4 27c-1.2-.7-1.9-2-1.9-3.3V11.8c0-1.4.7-2.6 1.9-3.3l10.2-5.9c1.2-.7 2.6-.7 3.8 0l10.2 5.9c1.2.7 1.9 1.9 1.9 3.3l.1 11.9z"/><path class="st7" d="M20.9 13.5l-3.4-2c-.8-.5-1.8-.5-2.7 0l-3.4 2c-.8.5-1.3 1.4-1.3 2.3v3.9c0 .9.5 1.8 1.3 2.3l3.4 2c.4.2.9.4 1.3.4.5 0 .9-.1 1.3-.4l3.4-2c.8-.5 1.3-1.4 1.3-2.3v-3.9c.2-1-.4-1.9-1.2-2.3zm-.7 6.2c0 .2-.1.4-.3.5l-3.4 2c-.2.1-.4.1-.6 0l-3.4-2c-.2-.1-.3-.3-.3-.5v-3.9c0-.2.1-.4.3-.5l3.4-2c.1 0 .2-.1.3-.1.1 0 .2 0 .3.1l3.4 2c.2.1.3.3.3.5v3.9z"/></g></svg>