<svg xmlns="http://www.w3.org/2000/svg" width="96.6" height="88.9" viewBox="0 0 96.6 88.9"><style>.st0{display:none}.st1,.st2{display:inline;fill:#d5d5d5}.st2{fill:#fff}.st3{fill:#ede9f5}.st4{fill:none;stroke:#704898;stroke-width:2;stroke-linecap:round;stroke-linejoin:round;stroke-miterlimit:10}.st5{fill:#704898}.st10,.st11,.st12{stroke-width:2;stroke-linecap:round;stroke-linejoin:round;stroke-miterlimit:10}.st6{fill:none;stroke:#dccee5}.st6,.st7,.st8,.st9{stroke-width:2;stroke-linecap:round;stroke-linejoin:round;stroke-miterlimit:10}.st10,.st11,.st12{stroke:#714899}.st7{fill:#fff}.st7,.st8,.st9{stroke:#714899}.st8{fill:#ede9f5}.st9{fill:#a994c2}.st10{fill:#c6bad8}.st11{fill:#dccee5}.st12{fill:#f6f3f9}.st13{opacity:.8;fill:#fff}.st14,.st15,.st16{stroke:#714899;stroke-linecap:round;stroke-linejoin:round}.st14{fill:none;stroke-miterlimit:10;stroke-width:2}.st15,.st16{stroke-width:1.3}.st15{stroke-miterlimit:10;fill:#fff}.st16{fill:#ede9f5}.st16,.st17,.st18{stroke-miterlimit:10}.st17{stroke:#704898;stroke-width:1.3;stroke-linecap:round;stroke-linejoin:round;fill:none}.st18{fill:#a994c2}.st18,.st19,.st20{stroke:#714899;stroke-width:1.3;stroke-linecap:round;stroke-linejoin:round}.st19{stroke-miterlimit:10;fill:#c6bad8}.st20{fill:#dccee5}.st20,.st21,.st22,.st23{stroke-miterlimit:10}.st21{stroke:#714899;stroke-width:1.3;stroke-linecap:round;stroke-linejoin:round;fill:#f6f3f9}.st22,.st23{fill:none}.st22{stroke-linecap:round;stroke-linejoin:round;stroke:#714899;stroke-width:1.3}.st23{stroke:#aaa;stroke-width:2}.st24{fill:#5893ce}.st25{fill:#fff}.st26{opacity:.5;fill:url(#SVGID_1_)}.st27{fill:#dccee5;stroke:#714899;stroke-width:2;stroke-linejoin:round;stroke-miterlimit:10}.st28{fill:#d8dde6}.st29{fill:#73629e}.st30{fill:#5993ce}.st31{fill:#86b980}.st32{fill:#f0a354}.st33{fill:#fff;stroke:#d6d4e1;stroke-linecap:round;stroke-linejoin:round;stroke-miterlimit:10}.st34{opacity:.5;fill:url(#SVGID_2_)}</style><g id="icons"><path class="st25" d="M90.6 87.9H6c-2.8 0-5-2.2-5-5V6c0-2.8 2.2-5 5-5h84.6c2.8 0 5 2.2 5 5v76.9c0 2.7-2.2 5-5 5z"/><linearGradient id="SVGID_1_" gradientUnits="userSpaceOnUse" x1="-205.709" y1="288.1" x2="-145.731" y2="288.1" gradientTransform="rotate(-90 -182.473 56.803)"><stop offset="0" stop-color="#fff"/><stop offset="1" stop-color="#f2f2f4"/></linearGradient><path class="st26" d="M95.6 20.1V80H2V20.1z"/><path class="st14" d="M90.6 87.9H6c-2.8 0-5-2.2-5-5V6c0-2.8 2.2-5 5-5h84.6c2.8 0 5 2.2 5 5v76.9c0 2.7-2.2 5-5 5z"/><path class="st27" d="M95.6 18.8V6c0-2.8-2.2-5-5-5H6C3.3 1 1 3.3 1 6v12.8h94.6z"/><circle class="st5" cx="10.8" cy="9.9" r="3.1"/><circle class="st5" cx="19.8" cy="9.9" r="3.1"/><circle class="st5" cx="28.7" cy="9.9" r="3.1"/><path class="st25" d="M16.4 75.1c-.4 0-.8-.4-.8-.8v-43c0-.4.4-.8.8-.8h63.8c.4 0 .8.4.8.8v43c0 .4-.4.8-.8.8H16.4z"/><path class="st28" d="M80.2 31.1c.2 0 .3.1.3.3v43c0 .2-.1.3-.3.3H16.4c-.2 0-.3-.1-.3-.3v-43c0-.2.1-.3.3-.3h63.8m0-1H16.4c-.7 0-1.3.6-1.3 1.3v43c0 .7.6 1.3 1.3 1.3h63.8c.7 0 1.3-.6 1.3-1.3v-43c0-.7-.6-1.3-1.3-1.3z"/><path class="st29" d="M25.3 35.6h8.2v39.1h-8.2z"/><path class="st30" d="M39.2 50.5h8.2v24.2h-8.2z"/><path class="st31" d="M53.1 42.9h8.2v31.7h-8.2z"/><path class="st32" d="M66.4 64.3h8.2v10.2h-8.2z"/></g></svg>