<svg xmlns="http://www.w3.org/2000/svg" xmlns:xlink="http://www.w3.org/1999/xlink" viewBox="0 0 62.74 85.85">
  <defs>
    <style>
      .cls-1 {
        fill: none;
      }

      .cls-10, .cls-2, .cls-3, .cls-4 {
        fill: #704898;
      }

      .cls-2 {
        clip-rule: evenodd;
      }

      .cls-4 {
        font-size: 11px;
        font-family: HelveticaNeue-Medium, Helvetica Neue;
        letter-spacing: 0.01em;
      }

      .cls-5 {
        letter-spacing: -0.08em;
      }

      .cls-6, .cls-8 {
        fill: #fff;
      }

      .cls-6 {
        stroke: #704898;
        stroke-linecap: round;
        stroke-linejoin: round;
        stroke-width: 1.5px;
      }

      .cls-7 {
        fill: #dccee5;
      }

      .cls-9 {
        clip-path: url(#clip-path);
      }

      .cls-10 {
        fill-rule: evenodd;
      }

      .cls-11 {
        clip-path: url(#clip-path-2);
      }

      .cls-12 {
        clip-path: url(#clip-path-3);
      }
    </style>
    <clipPath id="clip-path">
      <path class="cls-1" d="M53.64,5.7l-6-3.44a2.43,2.43,0,0,0-2.43,0l-6,3.44A2.43,2.43,0,0,0,38.1,7.8v6.87a2.43,2.43,0,0,0,1.21,2.1l6,3.44a2.43,2.43,0,0,0,2.43,0l6-3.44a2.43,2.43,0,0,0,1.21-2.1V7.8A2.43,2.43,0,0,0,53.64,5.7Zm.12,9a1.34,1.34,0,0,1-.67,1.15l-6,3.44a1.33,1.33,0,0,1-1.33,0l-6-3.44a1.34,1.34,0,0,1-.67-1.15V7.8a1.34,1.34,0,0,1,.67-1.15l6-3.44a1.33,1.33,0,0,1,1.33,0l6,3.44a1.34,1.34,0,0,1,.67,1.15ZM51.59,7.33a.92.92,0,0,0-.47.85l-3.85,2.14L48,8.45a.93.93,0,1,0-.76-.3l-.94,2.39L42.13,8.19a.93.93,0,1,0-.4.71l4,2.25-2.1,1.07A.93.93,0,1,0,44,13l2-1-.38,4.45a.93.93,0,1,0,.82.07l.41-4.74,3.31.59a.93.93,0,1,0,.14-.81L47.68,11,51.52,8.9a.92.92,0,1,0,.07-1.57"/>
    </clipPath>
    <clipPath id="clip-path-2">
      <path class="cls-2" d="M53.64,5.7l-6-3.44a2.43,2.43,0,0,0-2.43,0l-6,3.44A2.43,2.43,0,0,0,38.1,7.8v6.87a2.43,2.43,0,0,0,1.21,2.1l6,3.44a2.43,2.43,0,0,0,2.43,0l6-3.44a2.43,2.43,0,0,0,1.21-2.1V7.8A2.43,2.43,0,0,0,53.64,5.7Zm.12,9a1.34,1.34,0,0,1-.67,1.15l-6,3.44a1.33,1.33,0,0,1-1.33,0l-6-3.44a1.34,1.34,0,0,1-.67-1.15V7.8a1.34,1.34,0,0,1,.67-1.15l6-3.44a1.33,1.33,0,0,1,1.33,0l6,3.44a1.34,1.34,0,0,1,.67,1.15ZM51.59,7.33a.92.92,0,0,0-.47.85l-3.85,2.14L48,8.45a.93.93,0,1,0-.76-.3l-.94,2.39L42.13,8.19a.93.93,0,1,0-.4.71l4,2.25-2.1,1.07A.93.93,0,1,0,44,13l2-1-.38,4.45a.93.93,0,1,0,.82.07l.41-4.74,3.31.59a.93.93,0,1,0,.14-.81L47.68,11,51.52,8.9a.92.92,0,1,0,.07-1.57"/>
    </clipPath>
    <clipPath id="clip-path-3">
      <rect class="cls-3" x="37.32" y="1.94" width="18.6" height="18.6"/>
    </clipPath>
  </defs>
  <title>metabase-icon</title>
  <g id="Layer_2" data-name="Layer 2">
    <g id="Layer_7" data-name="Layer 7">
      <g>
        <text class="cls-4" transform="translate(0 69.5)">ME<tspan class="cls-5" x="16.93" y="0">T</tspan><tspan x="22.55" y="0">ABASE </tspan><tspan x="20.2" y="13.2">APP</tspan></text>
        <g>
          <g>
            <g id="Page-1">
              <g id="heroku-data-redis">
                <path id="Background" class="cls-6" d="M43.59,46.47H15.15a3.28,3.28,0,0,1-3.28-3.28V14.76a3.28,3.28,0,0,1,3.28-3.28H43.59a3.28,3.28,0,0,1,3.28,3.28V43.19a3.28,3.28,0,0,1-3.28,3.28"/>
              </g>
            </g>
            <g>
              <circle class="cls-3" cx="20.87" cy="21.88" r="1.46"/>
              <circle class="cls-7" cx="25.33" cy="21.88" r="1.46"/>
              <circle class="cls-7" cx="29.8" cy="21.88" r="1.46"/>
              <circle class="cls-7" cx="34.26" cy="21.88" r="1.46"/>
              <circle class="cls-3" cx="38.73" cy="21.88" r="1.46"/>
              <circle class="cls-3" cx="20.87" cy="26.61" r="1.46"/>
              <circle class="cls-3" cx="25.33" cy="26.61" r="1.46"/>
              <circle class="cls-7" cx="29.8" cy="26.61" r="1.46"/>
              <circle class="cls-3" cx="34.26" cy="26.61" r="1.46"/>
              <circle class="cls-3" cx="38.73" cy="26.61" r="1.46"/>
              <circle class="cls-3" cx="20.87" cy="31.35" r="1.46"/>
              <circle class="cls-7" cx="25.33" cy="31.35" r="1.46"/>
              <circle class="cls-3" cx="29.8" cy="31.35" r="1.46"/>
              <circle class="cls-7" cx="34.26" cy="31.35" r="1.46"/>
              <circle class="cls-3" cx="38.73" cy="31.35" r="1.46"/>
              <circle class="cls-3" cx="20.87" cy="36.09" r="1.46"/>
              <circle class="cls-7" cx="25.33" cy="36.09" r="1.46"/>
              <circle class="cls-7" cx="29.8" cy="36.09" r="1.46"/>
              <circle class="cls-7" cx="29.8" cy="40.83" r="1.46"/>
              <circle class="cls-7" cx="29.8" cy="17.14" r="1.46"/>
              <circle class="cls-7" cx="34.26" cy="36.09" r="1.46"/>
              <circle class="cls-3" cx="38.73" cy="36.09" r="1.46"/>
            </g>
          </g>
          <g>
            <polygon class="cls-8" points="38.84 6.72 46.36 2.4 54.03 6.72 54.31 15.64 46.64 19.96 38.56 15.5 38.84 6.72"/>
            <g>
              <path class="cls-10" d="M53.64,5.7l-6-3.44a2.43,2.43,0,0,0-2.43,0l-6,3.44A2.43,2.43,0,0,0,38.1,7.8v6.87a2.43,2.43,0,0,0,1.21,2.1l6,3.44a2.43,2.43,0,0,0,2.43,0l6-3.44a2.43,2.43,0,0,0,1.21-2.1V7.8A2.43,2.43,0,0,0,53.64,5.7Zm.12,9a1.34,1.34,0,0,1-.67,1.15l-6,3.44a1.33,1.33,0,0,1-1.33,0l-6-3.44a1.34,1.34,0,0,1-.67-1.15V7.8a1.34,1.34,0,0,1,.67-1.15l6-3.44a1.33,1.33,0,0,1,1.33,0l6,3.44a1.34,1.34,0,0,1,.67,1.15ZM51.59,7.33a.92.92,0,0,0-.47.85l-3.85,2.14L48,8.45a.93.93,0,1,0-.76-.3l-.94,2.39L42.13,8.19a.93.93,0,1,0-.4.71l4,2.25-2.1,1.07A.93.93,0,1,0,44,13l2-1-.38,4.45a.93.93,0,1,0,.82.07l.41-4.74,3.31.59a.93.93,0,1,0,.14-.81L47.68,11,51.52,8.9a.92.92,0,1,0,.07-1.57"/>
              <g class="cls-11">
                <g>
                  <rect class="cls-3" x="37.32" y="1.94" width="18.6" height="18.6"/>
                  <g class="cls-12">
                    <rect class="cls-3" x="36.16" width="20.63" height="22.47"/>
                  </g>
                </g>
              </g>
            </g>
          </g>
        </g>
      </g>
    </g>
  </g>
</svg>
