<svg xmlns="http://www.w3.org/2000/svg" viewBox="0 0 70.06 76.61">
  <defs>
    <style>
      .cls-1 {
        font-size: 11px;
        font-family: HelveticaNeue-Medium, Helvetica Neue;
        letter-spacing: 0.01em;
      }

      .cls-1, .cls-4 {
        fill: #704898;
      }

      .cls-2 {
        letter-spacing: -0.08em;
      }

      .cls-3 {
        fill: #fff;
      }
    </style>
  </defs>
  <title>data-prod-icon</title>
  <g id="Layer_2" data-name="Layer 2">
    <g id="Layer_7" data-name="Layer 7">
      <g>
        <text class="cls-1" transform="translate(21.25 9.43)">D<tspan class="cls-2" x="8.05" y="0">AT</tspan><tspan x="20.11" y="0">A</tspan><tspan x="-21.25" y="13.2">PRODUCERS</tspan></text>
        <g>
          <g>
            <path class="cls-3" d="M43.73,41.82,33.49,35.9a5.93,5.93,0,0,0-5.91,0L17.32,41.82a5.94,5.94,0,0,0-3,5.12V58.77a5.92,5.92,0,0,0,3,5.12l10.24,5.92a5.94,5.94,0,0,0,5.92,0L43.73,63.9a5.94,5.94,0,0,0,3-5.12V46.93A5.93,5.93,0,0,0,43.73,41.82Z"/>
            <g>
              <path class="cls-4" d="M43.73,41.82,33.49,35.9a5.93,5.93,0,0,0-5.91,0L17.32,41.82a5.94,5.94,0,0,0-3,5.12V58.77a5.92,5.92,0,0,0,3,5.12l10.24,5.92a5.94,5.94,0,0,0,5.92,0l10.24-5.92a5.94,5.94,0,0,0,3-5.12V46.93A5.93,5.93,0,0,0,43.73,41.82Zm.87,17a3.83,3.83,0,0,1-1.91,3.31L32.44,68a3.85,3.85,0,0,1-3.83,0L18.37,62.09a3.84,3.84,0,0,1-1.91-3.31V46.93a3.83,3.83,0,0,1,1.91-3.31L28.62,37.7a3.85,3.85,0,0,1,3.83,0l10.24,5.92a3.83,3.83,0,0,1,1.91,3.31V58.77Z"/>
              <path class="cls-4" d="M35.28,48.57l-3.42-2a2.66,2.66,0,0,0-2.67,0l-3.42,2a2.67,2.67,0,0,0-1.33,2.31v3.94a2.68,2.68,0,0,0,1.33,2.31l3.42,2a2.68,2.68,0,0,0,2.66,0l3.42-2a2.67,2.67,0,0,0,1.33-2.31V50.88A2.63,2.63,0,0,0,35.28,48.57Zm-.76,6.26a.57.57,0,0,1-.29.5l-3.42,2a.58.58,0,0,1-.58,0l-3.42-2a.58.58,0,0,1-.29-.5V50.88a.57.57,0,0,1,.29-.5l3.42-2a.59.59,0,0,1,.58,0l3.42,2a.58.58,0,0,1,.29.5Z"/>
            </g>
          </g>
          <g>
            <path class="cls-3" d="M47.73,44.82,37.49,38.9a5.93,5.93,0,0,0-5.91,0L21.32,44.82a5.94,5.94,0,0,0-3,5.12V61.77a5.92,5.92,0,0,0,3,5.12l10.24,5.92a5.94,5.94,0,0,0,5.92,0L47.73,66.9a5.94,5.94,0,0,0,3-5.12V49.93A5.93,5.93,0,0,0,47.73,44.82Z"/>
            <g>
              <path class="cls-4" d="M47.73,44.82,37.49,38.9a5.93,5.93,0,0,0-5.91,0L21.32,44.82a5.94,5.94,0,0,0-3,5.12V61.77a5.92,5.92,0,0,0,3,5.12l10.24,5.92a5.94,5.94,0,0,0,5.92,0l10.24-5.92a5.94,5.94,0,0,0,3-5.12V49.93A5.93,5.93,0,0,0,47.73,44.82Zm.87,17a3.83,3.83,0,0,1-1.91,3.31L36.44,71a3.85,3.85,0,0,1-3.83,0L22.37,65.09a3.84,3.84,0,0,1-1.91-3.31V49.93a3.83,3.83,0,0,1,1.91-3.31L32.62,40.7a3.85,3.85,0,0,1,3.83,0l10.24,5.92a3.83,3.83,0,0,1,1.91,3.31V61.77Z"/>
              <path class="cls-4" d="M39.28,51.57l-3.42-2a2.66,2.66,0,0,0-2.67,0l-3.42,2a2.67,2.67,0,0,0-1.33,2.31v3.94a2.68,2.68,0,0,0,1.33,2.31l3.42,2a2.68,2.68,0,0,0,2.66,0l3.42-2a2.67,2.67,0,0,0,1.33-2.31V53.88A2.63,2.63,0,0,0,39.28,51.57Zm-.76,6.26a.57.57,0,0,1-.29.5l-3.42,2a.58.58,0,0,1-.58,0l-3.42-2a.58.58,0,0,1-.29-.5V53.88a.57.57,0,0,1,.29-.5l3.42-2a.59.59,0,0,1,.58,0l3.42,2a.58.58,0,0,1,.29.5Z"/>
            </g>
          </g>
          <g>
            <path class="cls-3" d="M52.73,47.82,42.49,41.9a5.93,5.93,0,0,0-5.91,0L26.32,47.82a5.94,5.94,0,0,0-3,5.12V64.77a5.92,5.92,0,0,0,3,5.12l10.24,5.92a5.94,5.94,0,0,0,5.92,0L52.73,69.9a5.94,5.94,0,0,0,3-5.12V52.93A5.93,5.93,0,0,0,52.73,47.82Z"/>
            <g>
              <path class="cls-4" d="M52.73,47.82,42.49,41.9a5.93,5.93,0,0,0-5.91,0L26.32,47.82a5.94,5.94,0,0,0-3,5.12V64.77a5.92,5.92,0,0,0,3,5.12l10.24,5.92a5.94,5.94,0,0,0,5.92,0l10.24-5.92a5.94,5.94,0,0,0,3-5.12V52.93A5.93,5.93,0,0,0,52.73,47.82Zm.87,17a3.83,3.83,0,0,1-1.91,3.31L41.44,74a3.85,3.85,0,0,1-3.83,0L27.37,68.09a3.84,3.84,0,0,1-1.91-3.31V52.93a3.83,3.83,0,0,1,1.91-3.31L37.62,43.7a3.85,3.85,0,0,1,3.83,0l10.24,5.92a3.83,3.83,0,0,1,1.91,3.31V64.77Z"/>
              <path class="cls-4" d="M44.28,54.57l-3.42-2a2.66,2.66,0,0,0-2.67,0l-3.42,2a2.67,2.67,0,0,0-1.33,2.31v3.94a2.68,2.68,0,0,0,1.33,2.31l3.42,2a2.68,2.68,0,0,0,2.66,0l3.42-2a2.67,2.67,0,0,0,1.33-2.31V56.88A2.63,2.63,0,0,0,44.28,54.57Zm-.76,6.26a.57.57,0,0,1-.29.5l-3.42,2a.58.58,0,0,1-.58,0l-3.42-2a.58.58,0,0,1-.29-.5V56.88a.57.57,0,0,1,.29-.5l3.42-2a.59.59,0,0,1,.58,0l3.42,2a.58.58,0,0,1,.29.5Z"/>
            </g>
          </g>
        </g>
      </g>
    </g>
  </g>
</svg>
