<svg xmlns="http://www.w3.org/2000/svg" viewBox="0 0 47.92 75.13">
  <defs>
    <style>
      .cls-1 {
        font-size: 11px;
        fill: #704898;
        font-family: HelveticaNeue-Medium, Helvetica Neue;
        letter-spacing: 0.01em;
      }

      .cls-2 {
        letter-spacing: -0.06em;
      }

      .cls-3 {
        fill: #fff;
        stroke: #704898;
        stroke-linecap: round;
        stroke-linejoin: round;
        stroke-width: 1.5px;
      }
    </style>
  </defs>
  <title>kafka-icon</title>
  <g id="Layer_2" data-name="Layer 2">
    <g id="Layer_7" data-name="Layer 7">
      <g>
        <text class="cls-1" transform="translate(0.08 58.77)">A<tspan class="cls-2" x="7.45" y="0">P</tspan><tspan x="14.08" y="0">ACHE </tspan><tspan x="5.51" y="13.2">KAFKA</tspan></text>
        <g>
          <g id="Page-1">
            <g id="heroku-data-redis">
              <path id="Background" class="cls-3" d="M38.18,35.75H9.74a3.28,3.28,0,0,1-3.28-3.28V4A3.28,3.28,0,0,1,9.74.75H38.18A3.28,3.28,0,0,1,41.46,4V32.47a3.28,3.28,0,0,1-3.28,3.28"/>
            </g>
          </g>
          <line class="cls-3" x1="26.2" y1="6.47" x2="26.2" y2="30.57"/>
          <g>
            <line class="cls-3" x1="19.6" y1="16.43" x2="15.48" y2="14.5"/>
            <line class="cls-3" x1="15.46" y1="22.47" x2="19.54" y2="20.45"/>
            <path class="cls-3" d="M15.46,22.47"/>
            <path class="cls-3" d="M13.49,23.44"/>
            <circle class="cls-3" cx="13.49" cy="23.44" r="2.19"/>
            <circle class="cls-3" cx="13.49" cy="13.56" r="2.19"/>
            <path class="cls-3" d="M22,10.82a2.19,2.19,0,0,1,0-4.39Z"/>
            <path class="cls-3" d="M22,26.18a2.19,2.19,0,0,0,0,4.39Z"/>
            <path class="cls-3" d="M22,22.81a4.63,4.63,0,0,1,0-8.6Z"/>
          </g>
          <line class="cls-3" x1="36.62" y1="12.5" x2="26.2" y2="17.35"/>
          <line class="cls-3" x1="36.62" y1="24.55" x2="26.2" y2="19.43"/>
        </g>
      </g>
    </g>
  </g>
</svg>
