<svg xmlns="http://www.w3.org/2000/svg" xmlns:xlink="http://www.w3.org/1999/xlink" viewBox="0 0 85.26 88.74">
  <defs>
    <style>
      .cls-1 {
        font-size: 11px;
        font-family: HelveticaNeue-Medium, Helvetica Neue;
      }

      .cls-1, .cls-10 {
        fill: #704898;
      }

      .cls-1, .cls-5 {
        letter-spacing: 0.01em;
      }

      .cls-2 {
        letter-spacing: -0.08em;
      }

      .cls-3 {
        letter-spacing: 0.01em;
      }

      .cls-4 {
        letter-spacing: -0.08em;
      }

      .cls-6 {
        fill: #fff;
      }

      .cls-7 {
        opacity: 0.5;
        fill: url(#linear-gradient);
      }

      .cls-8 {
        fill: none;
        stroke-linecap: round;
      }

      .cls-8, .cls-9 {
        stroke: #714899;
        stroke-linejoin: round;
        stroke-width: 1.5px;
      }

      .cls-9 {
        fill: #dccee5;
      }

      .cls-11 {
        fill: #78c36e;
      }

      .cls-12 {
        fill: #3da1da;
      }

      .cls-13 {
        fill: #482f8b;
      }

      .cls-14 {
        fill: #f9a152;
      }

      .cls-15 {
        fill: #d8dde6;
      }
    </style>
    <linearGradient id="linear-gradient" x1="23.77" y1="3832.23" x2="56.24" y2="3832.23" gradientTransform="translate(2.9 -3764.72)" gradientUnits="userSpaceOnUse">
      <stop offset="0" stop-color="#fff"/>
      <stop offset="1" stop-color="#f2f2f4"/>
    </linearGradient>
  </defs>
  <title>viz-icon</title>
  <g id="Layer_2" data-name="Layer 2">
    <g id="Layer_7" data-name="Layer 7">
      <g>
        <text class="cls-1" transform="translate(0.06 9.43)">REA<tspan class="cls-2" x="22.34" y="0">L</tspan><tspan class="cls-3" x="27.75" y="0">TIME D</tspan><tspan class="cls-4" x="65.7" y="0">AT</tspan><tspan class="cls-3" x="77.76" y="0">A</tspan><tspan class="cls-3"><tspan x="0" y="13.2">VISUALIZ</tspan><tspan class="cls-4" x="49.37" y="13.2">A</tspan><tspan class="cls-5" x="55.8" y="13.2">TION</tspan></tspan></text>
        <g>
          <text></text>
          <rect class="cls-6" x="17.02" y="40.95" width="51.22" height="47.04" rx="5" ry="5"/>
          <rect class="cls-7" x="26.67" y="42.17" width="32.47" height="50.67" transform="translate(-24.59 110.41) rotate(-90)"/>
          <rect class="cls-8" x="17.02" y="40.95" width="51.22" height="47.04" rx="5" ry="5"/>
          <path class="cls-9" d="M68.24,50.57V43.65a2.71,2.71,0,0,0-2.71-2.71H19.73A2.71,2.71,0,0,0,17,43.65v6.92Z"/>
          <circle class="cls-10" cx="22.31" cy="45.76" r="1.66"/>
          <circle class="cls-10" cx="27.17" cy="45.76" r="1.66"/>
          <circle class="cls-10" cx="32.04" cy="45.76" r="1.66"/>
          <g>
            <path class="cls-11" d="M26.46,73.06c.74,0,2.07,2,3,2s3.74-2.8,4.21-3.26,1.49-2,2.4-2,2,1.48,3,1.46S41.56,70,42.36,70s2.14,1.23,3.16,1.23,2-1.23,3.12-1.21S50.92,72,52,72s1.23-1,2.5-1c1,0,4.24,1.42,5.73,2.09V64.69a35.44,35.44,0,0,1-5.11,2c-1.8.42-1.91-1-3.12-1s-2.47,1.86-3.41,1.91-2-1.23-3.05-1.21-2.25,1.11-3.26,1.13-2.2-1.13-3.09-1.13S36.64,68,36,68s-1.21-.76-1.7-1.28-3.84-4-4.92-4-2.12,1.93-3.06,1.88a2.8,2.8,0,0,1-1.44-.89V74A3.05,3.05,0,0,1,26.46,73.06Z"/>
            <path class="cls-12" d="M30.92,68c3.73.29,6.72,1.3,9,1.49a24.56,24.56,0,0,0,7-.32c2.1-.47,3.56-1.62,5.12-1.32s1.77,2.56,4.61,3a18.52,18.52,0,0,1,3.55,1.09v-7.2a35.44,35.44,0,0,1-5.11,2c-1.8.42-1.91-1-3.12-1s-2.47,1.86-3.41,1.91-2-1.23-3.05-1.21-2.25,1.11-3.26,1.13-2.2-1.13-3.09-1.13S36.64,68,36,68s-1.21-.76-1.7-1.28-3.84-4-4.92-4-2.12,1.93-3.06,1.88a2.8,2.8,0,0,1-1.44-.89v6.65A8.45,8.45,0,0,1,30.92,68Z"/>
            <path class="cls-13" d="M52,65.77c-1.21,0-2.47,1.86-3.41,1.91s-2-1.23-3.05-1.21-2.25,1.11-3.26,1.13-2.2-1.13-3.09-1.13S36.64,68,36,68s-1.21-.76-1.7-1.28-3.84-4-4.92-4-2.12,1.93-3.06,1.88a2.8,2.8,0,0,1-1.44-.89v3.59a7.63,7.63,0,0,0,2.5-1.74c.87-1.09,1.43-1.88,2.12-1.9s2.42,2.52,3.39,3.12A7.28,7.28,0,0,0,36,68.12c.94,0,2.32-.74,3.68-.64s1.61.54,2.62.49,2-1.28,3.19-1.28,2.1,1.21,3,1.24,2.18-2,3.49-2,1.19,2.45,2.8,2.35a24.45,24.45,0,0,0,5.4-1.89V64.69a35.44,35.44,0,0,1-5.11,2C53.31,67.14,53.19,65.75,52,65.77Z"/>
            <path class="cls-14" d="M54.42,70.39c-1-.28-1.29.66-2.51.69s-1.81-1.87-2.85-1.89S47,70.3,45.71,70.39s-2.16-.56-3.32-.59-2,.84-3.16,1-2.31-1.4-3.26-1.43-5.19,3.42-6.27,3.41-1.76-2.44-3-2.41c-.58,0-1.26.64-1.81,1.29V74a3.05,3.05,0,0,1,1.53-.94c.74,0,2.07,2,3,2s3.74-2.8,4.21-3.26,1.49-2,2.4-2,2,1.48,3,1.46S41.56,70,42.36,70s2.14,1.23,3.16,1.23,2-1.23,3.12-1.21S50.92,72,52,72s1.23-1,2.5-1c1,0,4.24,1.42,5.73,2.09v-.63C59,72,55.27,70.62,54.42,70.39Z"/>
          </g>
          <path class="cls-15" d="M59.78,57.25a.28.28,0,0,1,.28.28v23a.28.28,0,0,1-.28.28H25.48a.28.28,0,0,1-.28-.28v-23a.28.28,0,0,1,.28-.28h34.3m0-1.08H25.48a1.37,1.37,0,0,0-1.37,1.37v23a1.37,1.37,0,0,0,1.37,1.37h34.3a1.37,1.37,0,0,0,1.37-1.37v-23a1.37,1.37,0,0,0-1.37-1.37Z"/>
        </g>
      </g>
    </g>
  </g>
</svg>
